<svg width="25" height="24" viewBox="0 0 25 24" fill="none" xmlns="http://www.w3.org/2000/svg">
<path d="M16.1021 21V14.034H18.4351L18.7841 11.326H16.1021V9.598C16.1021 8.814 16.3201 8.279 17.4441 8.279H18.8781V5.857C18.1839 5.78334 17.4862 5.74762 16.7881 5.75C14.7211 5.75 13.3061 7.012 13.3061 9.33V11.326H10.9681V14.034H13.3061V21H4.70007C4.43486 21 4.1805 20.8946 3.99297 20.7071C3.80543 20.5196 3.70007 20.2652 3.70007 20V4C3.70007 3.73478 3.80543 3.48043 3.99297 3.29289C4.1805 3.10536 4.43486 3 4.70007 3H20.7001C20.9653 3 21.2196 3.10536 21.4072 3.29289C21.5947 3.48043 21.7001 3.73478 21.7001 4V20C21.7001 20.2652 21.5947 20.5196 21.4072 20.7071C21.2196 20.8946 20.9653 21 20.7001 21H16.1021Z" fill="#6A7C94"/>
</svg>
