<svg width="194" height="115" viewBox="0 0 194 115" fill="none" xmlns="http://www.w3.org/2000/svg">
<g clip-path="url(#clip0_959:1095)">
<path opacity="0.2" d="M143.121 110.419C149.998 110.419 155.573 104.853 155.573 97.9862C155.573 91.1196 149.998 85.5531 143.121 85.5531C136.244 85.5531 130.669 91.1196 130.669 97.9862C130.669 104.853 136.244 110.419 143.121 110.419Z" fill="#1890FF"/>
<path d="M72.6685 115C72.6639 115 72.6639 115 72.6594 115C72.5086 114.995 72.3532 114.986 72.2024 114.982C72.0745 114.977 71.9785 114.868 71.9831 114.745C71.9876 114.617 72.0973 114.521 72.2207 114.526C72.3715 114.53 72.5223 114.539 72.6776 114.544C72.8056 114.548 72.9015 114.653 72.897 114.781C72.8924 114.904 72.7919 115 72.6685 115Z" fill="#1890FF"/>
<path d="M70.8454 114.913C70.8409 114.913 70.8363 114.913 70.8317 114.913C70.5301 114.895 70.224 114.872 69.9178 114.849C69.7899 114.84 69.6985 114.731 69.7076 114.603C69.7168 114.475 69.8264 114.384 69.9544 114.393C70.256 114.416 70.5621 114.439 70.8591 114.457C70.9871 114.466 71.0785 114.571 71.0739 114.699C71.0648 114.818 70.9642 114.913 70.8454 114.913ZM68.5698 114.731C68.5607 114.731 68.5561 114.731 68.547 114.731C68.2454 114.703 67.9392 114.672 67.6376 114.635C67.5143 114.621 67.4229 114.507 67.4366 114.384C67.4503 114.261 67.5645 114.17 67.6879 114.183C67.9895 114.215 68.2911 114.247 68.5927 114.275C68.716 114.288 68.812 114.398 68.7983 114.526C68.7846 114.644 68.6886 114.731 68.5698 114.731ZM66.3033 114.475C66.2942 114.475 66.2851 114.475 66.2759 114.475C65.9743 114.434 65.6682 114.393 65.3712 114.352C65.2478 114.334 65.161 114.22 65.1793 114.092C65.1975 113.969 65.3118 113.882 65.4397 113.9C65.7367 113.942 66.0429 113.983 66.3399 114.024C66.4633 114.042 66.5547 114.156 66.5364 114.279C66.5181 114.393 66.4176 114.475 66.3033 114.475ZM64.0506 114.147C64.0369 114.147 64.0277 114.147 64.014 114.142C63.7124 114.092 63.4109 114.042 63.1138 113.992C62.9905 113.969 62.9082 113.85 62.9265 113.727C62.9493 113.604 63.0681 113.522 63.1915 113.54C63.4885 113.59 63.7901 113.645 64.0871 113.691C64.2105 113.709 64.2973 113.827 64.2745 113.951C64.2562 114.065 64.1603 114.147 64.0506 114.147ZM61.8024 113.745C61.7887 113.745 61.775 113.745 61.7567 113.741C61.4597 113.681 61.1581 113.622 60.8611 113.558C60.7377 113.531 60.66 113.412 60.6829 113.289C60.7103 113.166 60.8291 113.088 60.9525 113.111C61.2495 113.175 61.5511 113.234 61.8435 113.289C61.9669 113.312 62.0492 113.435 62.0217 113.558C62.008 113.668 61.9121 113.745 61.8024 113.745ZM59.5725 113.271C59.5542 113.271 59.5405 113.271 59.5222 113.266C59.2252 113.198 58.9282 113.129 58.6312 113.056C58.5078 113.029 58.4347 112.901 58.4621 112.783C58.4895 112.659 58.6175 112.586 58.7363 112.614C59.0287 112.687 59.3257 112.755 59.6227 112.824C59.7461 112.851 59.8238 112.974 59.7964 113.097C59.769 113.202 59.6776 113.271 59.5725 113.271ZM57.3563 112.732C57.338 112.732 57.3197 112.728 57.2969 112.723C56.9999 112.646 56.7028 112.568 56.4104 112.486C56.287 112.454 56.2185 112.326 56.2505 112.208C56.2824 112.089 56.4104 112.016 56.5292 112.048C56.8171 112.126 57.1141 112.208 57.4065 112.285C57.5299 112.317 57.603 112.44 57.571 112.564C57.5482 112.664 57.4568 112.732 57.3563 112.732ZM55.1584 112.121C55.1355 112.121 55.1172 112.116 55.0944 112.112C54.8019 112.025 54.5095 111.939 54.217 111.847C54.0982 111.811 54.0297 111.683 54.0662 111.56C54.1028 111.441 54.2307 111.373 54.3541 111.409C54.642 111.496 54.9344 111.587 55.2269 111.674C55.3457 111.71 55.4188 111.838 55.3823 111.957C55.3457 112.057 55.2589 112.121 55.1584 112.121ZM52.9787 111.441C52.9559 111.441 52.933 111.437 52.9056 111.428C52.6177 111.332 52.3253 111.236 52.0374 111.136C51.9186 111.094 51.8546 110.967 51.8957 110.844C51.9369 110.725 52.0648 110.661 52.1882 110.702C52.4761 110.802 52.7639 110.898 53.0518 110.994C53.1706 111.035 53.2346 111.163 53.198 111.282C53.166 111.377 53.0747 111.441 52.9787 111.441ZM50.8219 110.693C50.7945 110.693 50.7716 110.688 50.7442 110.679C50.4609 110.574 50.1685 110.469 49.8852 110.36C49.7663 110.314 49.707 110.182 49.7526 110.068C49.7983 109.949 49.9309 109.89 50.0451 109.936C50.3284 110.041 50.6163 110.15 50.8996 110.25C51.0184 110.291 51.0778 110.424 51.0367 110.542C51.0047 110.634 50.9179 110.693 50.8219 110.693ZM48.6925 109.881C48.6651 109.881 48.6377 109.876 48.6057 109.863C48.3224 109.748 48.0391 109.634 47.7558 109.516C47.637 109.466 47.5821 109.333 47.6324 109.219C47.6827 109.105 47.8152 109.046 47.9294 109.096C48.2082 109.21 48.4915 109.329 48.7748 109.438C48.8936 109.484 48.9484 109.616 48.9027 109.735C48.8662 109.826 48.7793 109.881 48.6925 109.881ZM46.586 109C46.554 109 46.5266 108.996 46.4946 108.982C46.2159 108.859 45.9325 108.736 45.6584 108.612C45.5441 108.562 45.4939 108.425 45.5441 108.311C45.5944 108.197 45.7315 108.147 45.8457 108.197C46.1199 108.32 46.4032 108.444 46.6774 108.567C46.7916 108.617 46.8464 108.754 46.7962 108.868C46.7551 108.95 46.6728 109 46.586 109ZM44.5069 108.056C44.4749 108.056 44.4429 108.047 44.4109 108.033C44.1367 107.901 43.858 107.768 43.5838 107.636C43.4696 107.581 43.4239 107.444 43.4787 107.33C43.5336 107.216 43.6706 107.171 43.7849 107.225C44.0545 107.358 44.3332 107.49 44.6074 107.622C44.7216 107.677 44.7719 107.814 44.7171 107.928C44.6714 108.006 44.5891 108.056 44.5069 108.056ZM42.4597 107.043C42.4232 107.043 42.3866 107.034 42.3546 107.016C42.085 106.874 41.8109 106.733 41.5413 106.591C41.4316 106.532 41.3859 106.395 41.4453 106.281C41.5047 106.171 41.6418 106.126 41.756 106.185C42.0211 106.327 42.2952 106.468 42.5648 106.605C42.6791 106.664 42.7202 106.801 42.6654 106.911C42.6197 106.997 42.542 107.043 42.4597 107.043ZM40.4446 105.971C40.408 105.971 40.3669 105.962 40.3349 105.943C40.0699 105.797 39.8003 105.647 39.5353 105.496C39.4256 105.432 39.389 105.295 39.4484 105.186C39.5124 105.076 39.6495 105.04 39.7592 105.099C40.0242 105.25 40.2892 105.4 40.5543 105.546C40.6639 105.606 40.705 105.747 40.6411 105.857C40.5999 105.93 40.5223 105.971 40.4446 105.971ZM194.839 105.095C194.834 105.095 194.834 105.095 194.829 105.095C194.523 105.086 194.217 105.072 193.916 105.058C193.788 105.054 193.692 104.944 193.696 104.821C193.701 104.693 193.81 104.597 193.934 104.602C194.235 104.616 194.542 104.629 194.843 104.638C194.971 104.643 195.067 104.748 195.063 104.876C195.063 104.994 194.962 105.095 194.839 105.095ZM192.563 104.981C192.558 104.981 192.554 104.981 192.549 104.981C192.248 104.962 191.942 104.94 191.64 104.917C191.512 104.908 191.421 104.798 191.43 104.67C191.439 104.543 191.549 104.451 191.677 104.46C191.978 104.483 192.28 104.506 192.581 104.524C192.709 104.533 192.801 104.643 192.796 104.766C192.782 104.889 192.682 104.981 192.563 104.981ZM38.466 104.83C38.4249 104.83 38.3837 104.821 38.3472 104.798C38.0822 104.643 37.8217 104.483 37.5612 104.324C37.4516 104.26 37.4196 104.118 37.4881 104.009C37.5521 103.899 37.6937 103.867 37.8034 103.936C38.0593 104.091 38.3198 104.251 38.5802 104.406C38.6899 104.47 38.7219 104.611 38.6579 104.721C38.6168 104.794 38.5437 104.83 38.466 104.83ZM190.292 104.803C190.283 104.803 190.278 104.803 190.269 104.803C189.968 104.775 189.661 104.743 189.36 104.711C189.236 104.698 189.145 104.584 189.159 104.46C189.172 104.337 189.287 104.246 189.41 104.26C189.707 104.292 190.013 104.324 190.315 104.351C190.443 104.365 190.534 104.474 190.52 104.597C190.507 104.716 190.411 104.803 190.292 104.803ZM188.03 104.556C188.021 104.556 188.012 104.556 188.003 104.556C187.701 104.52 187.395 104.479 187.098 104.438C186.975 104.419 186.888 104.305 186.901 104.182C186.915 104.059 187.034 103.972 187.157 103.986C187.454 104.027 187.756 104.068 188.057 104.105C188.181 104.118 188.272 104.232 188.254 104.36C188.24 104.474 188.14 104.556 188.03 104.556ZM185.773 104.241C185.759 104.241 185.75 104.241 185.736 104.237C185.435 104.191 185.128 104.141 184.836 104.086C184.713 104.064 184.63 103.945 184.649 103.822C184.671 103.699 184.79 103.616 184.914 103.635C185.206 103.685 185.508 103.735 185.809 103.781C185.933 103.799 186.02 103.918 186.001 104.041C185.978 104.159 185.882 104.241 185.773 104.241ZM183.529 103.845C183.515 103.845 183.502 103.845 183.483 103.84C183.186 103.781 182.885 103.721 182.588 103.657C182.464 103.63 182.387 103.511 182.41 103.388C182.437 103.265 182.556 103.188 182.679 103.21C182.972 103.27 183.273 103.334 183.57 103.388C183.694 103.411 183.776 103.534 183.753 103.657C183.735 103.772 183.639 103.845 183.529 103.845ZM36.524 103.63C36.4828 103.63 36.4371 103.616 36.4006 103.594C36.1447 103.429 35.8842 103.261 35.6329 103.092C35.5278 103.023 35.5004 102.882 35.5689 102.777C35.6375 102.672 35.7791 102.645 35.8842 102.713C36.1356 102.877 36.3914 103.046 36.6473 103.21C36.7524 103.279 36.7844 103.42 36.7159 103.525C36.6702 103.594 36.5971 103.63 36.524 103.63ZM181.304 103.375C181.286 103.375 181.267 103.375 181.254 103.37C180.957 103.302 180.659 103.229 180.367 103.156C180.244 103.124 180.171 103 180.203 102.877C180.235 102.754 180.358 102.681 180.481 102.713C180.774 102.786 181.071 102.854 181.363 102.923C181.487 102.95 181.564 103.073 181.532 103.197C181.5 103.302 181.409 103.375 181.304 103.375ZM179.097 102.813C179.078 102.813 179.056 102.809 179.037 102.804C178.74 102.722 178.448 102.64 178.16 102.553C178.037 102.517 177.968 102.394 178.005 102.27C178.041 102.147 178.169 102.079 178.288 102.115C178.576 102.197 178.868 102.28 179.161 102.362C179.284 102.394 179.353 102.521 179.321 102.64C179.289 102.749 179.197 102.813 179.097 102.813ZM34.6231 102.362C34.5774 102.362 34.5317 102.348 34.4951 102.321C34.2438 102.147 33.9925 101.969 33.7457 101.796C33.6406 101.723 33.6178 101.581 33.6909 101.477C33.764 101.372 33.9056 101.349 34.0107 101.422C34.2575 101.595 34.5088 101.773 34.7556 101.942C34.8607 102.015 34.8835 102.156 34.815 102.261C34.7647 102.33 34.6962 102.362 34.6231 102.362ZM176.913 102.17C176.89 102.17 176.867 102.165 176.844 102.161C176.556 102.07 176.264 101.974 175.976 101.873C175.857 101.832 175.793 101.705 175.834 101.586C175.875 101.467 176.003 101.404 176.122 101.445C176.405 101.54 176.698 101.636 176.981 101.727C177.1 101.764 177.168 101.896 177.127 102.015C177.1 102.106 177.008 102.17 176.913 102.17ZM174.76 101.431C174.733 101.431 174.705 101.426 174.683 101.417C174.395 101.312 174.107 101.203 173.828 101.093C173.709 101.048 173.654 100.915 173.7 100.797C173.746 100.678 173.878 100.623 173.997 100.669C174.276 100.778 174.559 100.883 174.847 100.988C174.966 101.034 175.025 101.162 174.984 101.28C174.938 101.372 174.852 101.431 174.76 101.431ZM32.7633 101.034C32.7176 101.034 32.6673 101.02 32.6262 100.988C32.3794 100.806 32.1327 100.623 31.8951 100.436C31.7945 100.359 31.7763 100.217 31.8539 100.117C31.9316 100.017 32.0733 99.9983 32.1738 100.076C32.4114 100.258 32.6582 100.441 32.9004 100.623C33.0009 100.696 33.0237 100.842 32.946 100.943C32.9004 101.002 32.8318 101.034 32.7633 101.034ZM172.64 100.591C172.613 100.591 172.581 100.587 172.553 100.573C172.274 100.455 171.991 100.331 171.712 100.208C171.598 100.158 171.543 100.021 171.598 99.907C171.648 99.7929 171.786 99.7382 171.9 99.7929C172.174 99.9161 172.453 100.035 172.731 100.153C172.846 100.204 172.9 100.336 172.855 100.455C172.814 100.541 172.727 100.591 172.64 100.591ZM170.565 99.6561C170.533 99.6561 170.497 99.6469 170.465 99.6332C170.191 99.5009 169.912 99.3641 169.642 99.2272C169.528 99.1724 169.487 99.031 169.542 98.9215C169.597 98.812 169.738 98.7663 169.848 98.8211C170.118 98.958 170.387 99.0903 170.661 99.2226C170.776 99.2774 170.821 99.4142 170.767 99.5283C170.73 99.6104 170.648 99.6561 170.565 99.6561ZM30.9537 99.6469C30.9035 99.6469 30.8532 99.6287 30.8121 99.5967C30.5745 99.4051 30.3323 99.2135 30.0993 99.0219C30.0033 98.9397 29.9896 98.7983 30.0673 98.7025C30.1449 98.6067 30.2912 98.5884 30.3871 98.6705C30.6202 98.8622 30.8578 99.0538 31.0954 99.2409C31.1959 99.3184 31.2096 99.4644 31.132 99.5602C31.0863 99.615 31.0177 99.6469 30.9537 99.6469ZM168.537 98.6158C168.5 98.6158 168.464 98.6067 168.427 98.5884C168.157 98.4424 167.888 98.2918 167.627 98.1413C167.518 98.0774 167.481 97.9405 167.545 97.831C167.609 97.7215 167.746 97.685 167.856 97.7489C168.116 97.8995 168.381 98.0455 168.646 98.1915C168.756 98.2508 168.797 98.3922 168.738 98.5017C168.697 98.5747 168.619 98.6158 168.537 98.6158ZM29.1899 98.1915C29.1397 98.1915 29.0848 98.1732 29.0437 98.1367C28.8107 97.9405 28.5776 97.7398 28.3491 97.539C28.2532 97.4569 28.244 97.3109 28.3263 97.2151C28.4085 97.1193 28.5548 97.1101 28.6507 97.1923C28.8792 97.393 29.1077 97.5938 29.3407 97.79C29.4367 97.8721 29.4458 98.0181 29.3681 98.1093C29.3179 98.1641 29.2539 98.1915 29.1899 98.1915ZM166.567 97.4706C166.526 97.4706 166.485 97.4615 166.448 97.4341C166.188 97.2744 165.927 97.1056 165.672 96.9413C165.566 96.8729 165.534 96.7314 165.603 96.6265C165.672 96.5216 165.813 96.4896 165.918 96.5581C166.17 96.7223 166.426 96.8866 166.686 97.0417C166.791 97.1101 166.828 97.247 166.759 97.3565C166.718 97.4341 166.64 97.4706 166.567 97.4706ZM27.4809 96.6813C27.4261 96.6813 27.3713 96.663 27.3256 96.6219C27.1017 96.4166 26.8778 96.2067 26.6539 95.9969C26.5625 95.9102 26.5579 95.7642 26.6447 95.6729C26.7315 95.5817 26.8778 95.5771 26.9692 95.6638C27.1885 95.8691 27.4124 96.079 27.6363 96.2843C27.7277 96.371 27.7368 96.5124 27.65 96.6082C27.6043 96.6539 27.5403 96.6813 27.4809 96.6813ZM164.662 96.2204C164.616 96.2204 164.57 96.2067 164.529 96.1794C164.278 96.006 164.027 95.8235 163.784 95.6455C163.684 95.5725 163.661 95.4265 163.734 95.3262C163.807 95.2258 163.953 95.203 164.054 95.276C164.296 95.4539 164.543 95.6319 164.79 95.8052C164.895 95.8782 164.918 96.0197 164.844 96.1246C164.803 96.1839 164.73 96.2204 164.662 96.2204ZM25.8268 95.1072C25.7674 95.1072 25.7125 95.0844 25.6668 95.0433C25.4521 94.8288 25.2327 94.6144 25.018 94.3954C24.9312 94.3041 24.9312 94.1627 25.0225 94.0715C25.1139 93.9848 25.2556 93.9848 25.347 94.076C25.5572 94.2905 25.7765 94.5095 25.9913 94.7193C26.0827 94.806 26.0827 94.952 25.9913 95.0433C25.941 95.0844 25.8862 95.1072 25.8268 95.1072ZM162.829 94.8608C162.779 94.8608 162.729 94.8425 162.688 94.8106C162.45 94.6235 162.208 94.4273 161.975 94.2311C161.879 94.149 161.865 94.0076 161.943 93.9118C162.025 93.8159 162.167 93.8023 162.263 93.8798C162.496 94.0715 162.733 94.2631 162.971 94.4501C163.072 94.5277 163.085 94.6737 163.008 94.7695C162.962 94.8288 162.898 94.8608 162.829 94.8608ZM24.2275 93.4738C24.1681 93.4738 24.1041 93.4509 24.063 93.4007C23.8528 93.1817 23.6471 92.9536 23.4415 92.7301C23.3547 92.6388 23.3638 92.4928 23.4552 92.4061C23.5466 92.3194 23.6928 92.3285 23.7796 92.4198C23.9853 92.6434 24.1909 92.8669 24.3965 93.0859C24.4833 93.1772 24.4788 93.3232 24.3874 93.4099C24.3417 93.4555 24.2869 93.4738 24.2275 93.4738ZM161.079 93.3916C161.024 93.3916 160.97 93.3734 160.928 93.3323C160.7 93.1316 160.471 92.9217 160.248 92.7118C160.156 92.6251 160.152 92.4791 160.238 92.3879C160.325 92.2966 160.471 92.292 160.563 92.3787C160.782 92.584 161.011 92.7894 161.235 92.9901C161.331 93.0722 161.335 93.2182 161.253 93.3141C161.203 93.3643 161.143 93.3916 161.079 93.3916ZM22.5596 91.9772C22.4773 91.9772 22.3997 91.9772 22.3174 91.9772C22.1895 91.9772 22.0889 91.8723 22.0935 91.7445C22.0935 91.6213 22.1986 91.521 22.322 91.521H22.3265C22.3403 91.521 22.3494 91.521 22.3585 91.521C22.2123 91.3521 22.0707 91.1833 21.9244 91.0191C21.8422 90.9233 21.8559 90.7773 21.9518 90.6997C22.0478 90.6176 22.194 90.6313 22.2717 90.7271C22.4682 90.9552 22.6647 91.1879 22.8657 91.416C22.8932 91.448 22.9114 91.4845 22.916 91.521C23.0165 91.5164 23.1171 91.5164 23.2176 91.5118C23.3455 91.5073 23.4506 91.6031 23.4552 91.7308C23.4598 91.8586 23.3638 91.9635 23.2359 91.9681C23.0165 91.9681 22.7881 91.9772 22.5596 91.9772ZM20.9557 91.8951C20.9466 91.8951 20.942 91.8951 20.9328 91.8951C20.6267 91.8632 20.3205 91.8267 20.0144 91.7765C19.891 91.7582 19.8042 91.6396 19.8225 91.5164C19.8407 91.3932 19.9595 91.3065 20.0829 91.3248C20.3799 91.3704 20.6815 91.4069 20.974 91.4388C21.0974 91.4525 21.1933 91.562 21.1796 91.6898C21.1705 91.8084 21.0699 91.8951 20.9557 91.8951ZM24.5976 91.8403C24.4833 91.8403 24.3874 91.7582 24.3737 91.6442C24.3554 91.521 24.4422 91.4023 24.5702 91.3886C24.8672 91.3476 25.1642 91.2974 25.4566 91.2381C25.58 91.2107 25.6988 91.2928 25.7262 91.416C25.7491 91.5392 25.6714 91.6578 25.548 91.6852C25.2464 91.7445 24.9403 91.7993 24.6341 91.8403C24.6159 91.8403 24.6067 91.8403 24.5976 91.8403ZM159.42 91.8221C159.361 91.8221 159.302 91.7993 159.261 91.7537C159.046 91.5392 158.831 91.3157 158.621 91.0921C158.534 91.0008 158.539 90.8548 158.63 90.7681C158.721 90.6814 158.868 90.686 158.954 90.7773C159.165 90.9963 159.375 91.2153 159.59 91.4297C159.676 91.521 159.676 91.6624 159.59 91.7537C159.535 91.7993 159.475 91.8221 159.42 91.8221ZM18.7029 91.5164C18.6847 91.5164 18.6664 91.5164 18.6481 91.5118C18.3511 91.4388 18.0495 91.3613 17.7525 91.2746C17.6337 91.2381 17.5606 91.1103 17.5971 90.9917C17.6337 90.8731 17.7616 90.8001 17.8804 90.8366C18.1683 90.9233 18.4608 91.0008 18.7532 91.0693C18.8766 91.0966 18.9497 91.2198 18.9223 91.343C18.8994 91.448 18.808 91.5164 18.7029 91.5164ZM26.8229 91.3521C26.727 91.3521 26.6356 91.2883 26.6036 91.1925C26.567 91.0738 26.6356 90.9461 26.7544 90.905C27.0423 90.8183 27.3256 90.718 27.5997 90.6085C27.7185 90.5628 27.8511 90.6221 27.8968 90.7362C27.9425 90.8548 27.883 90.9871 27.7688 91.0328C27.4855 91.1423 27.1885 91.2472 26.8915 91.3385C26.8686 91.3476 26.8458 91.3521 26.8229 91.3521ZM16.5233 90.8457C16.4959 90.8457 16.4685 90.8411 16.441 90.832C16.1532 90.7225 15.8653 90.6039 15.5865 90.4761C15.4723 90.4259 15.4175 90.2891 15.4723 90.175C15.5226 90.0609 15.6597 90.0107 15.7739 90.0609C16.0481 90.1841 16.3268 90.2982 16.6055 90.4077C16.7243 90.4533 16.7837 90.5856 16.7381 90.7043C16.7015 90.7864 16.6147 90.8457 16.5233 90.8457ZM28.9295 90.4807C28.8472 90.4807 28.7695 90.4351 28.7284 90.3575C28.669 90.248 28.7101 90.1066 28.8244 90.0472C29.0894 89.9058 29.3499 89.7552 29.5966 89.6001C29.7017 89.5317 29.8434 89.5636 29.9119 89.6686C29.9804 89.7735 29.9485 89.9149 29.8434 89.9834C29.5829 90.1476 29.3133 90.3028 29.0391 90.4488C29.0026 90.4761 28.966 90.4807 28.9295 90.4807ZM157.858 90.1568C157.794 90.1568 157.73 90.1294 157.684 90.0792C157.483 89.8511 157.282 89.6184 157.085 89.3811C157.003 89.2853 157.017 89.1393 157.113 89.0617C157.209 88.9796 157.355 88.9933 157.433 89.0891C157.625 89.3218 157.826 89.5499 158.022 89.7781C158.104 89.8739 158.095 90.0153 157.999 90.102C157.967 90.1385 157.913 90.1568 157.858 90.1568ZM21.2299 90.0381C21.1613 90.0381 21.0974 90.0107 21.0517 89.9514C20.8597 89.7142 20.6678 89.4724 20.4805 89.2351C20.4028 89.1347 20.4211 88.9933 20.5216 88.9157C20.6221 88.8382 20.7638 88.8564 20.8415 88.9568C21.0288 89.194 21.2162 89.4313 21.4081 89.6686C21.4858 89.7644 21.472 89.9104 21.3715 89.9879C21.3304 90.0244 21.2801 90.0381 21.2299 90.0381ZM14.4533 89.883C14.4168 89.883 14.3802 89.8739 14.3436 89.8556C14.074 89.7051 13.8044 89.5499 13.544 89.3857C13.4389 89.3172 13.4069 89.1758 13.4709 89.0709C13.5394 88.9659 13.6811 88.934 13.7862 88.9979C14.0375 89.1575 14.2979 89.3081 14.563 89.4541C14.6726 89.5134 14.7138 89.6549 14.6544 89.7644C14.6132 89.8419 14.5356 89.883 14.4533 89.883ZM30.8304 89.226C30.7664 89.226 30.6979 89.1986 30.6522 89.1439C30.5699 89.048 30.5882 88.902 30.6841 88.8245C30.9126 88.6374 31.1365 88.4367 31.3513 88.2313C31.4427 88.1447 31.5843 88.1447 31.6757 88.2359C31.7625 88.3272 31.7625 88.4686 31.6712 88.5598C31.4473 88.7743 31.2142 88.9842 30.9766 89.1804C30.9309 89.2077 30.8806 89.226 30.8304 89.226ZM12.5387 88.6465C12.493 88.6465 12.4427 88.6329 12.4016 88.6009C12.1594 88.4184 11.9127 88.2313 11.6751 88.0397C11.5745 87.9622 11.5608 87.8161 11.6385 87.7203C11.7162 87.62 11.8624 87.6063 11.9584 87.6838C12.1914 87.8709 12.4336 88.058 12.6712 88.2359C12.7717 88.3089 12.7946 88.4549 12.7169 88.5553C12.6803 88.6146 12.6118 88.6465 12.5387 88.6465ZM156.409 88.3956C156.341 88.3956 156.272 88.3637 156.226 88.3089C156.039 88.0671 155.856 87.8207 155.673 87.5743C155.6 87.474 155.623 87.3279 155.724 87.255C155.824 87.1819 155.971 87.2048 156.044 87.3051C156.222 87.547 156.405 87.7933 156.587 88.0306C156.665 88.131 156.647 88.2724 156.546 88.35C156.51 88.3819 156.459 88.3956 156.409 88.3956ZM19.8316 88.2405C19.7631 88.2405 19.6945 88.2085 19.6488 88.1492C19.466 87.9074 19.2833 87.6565 19.1096 87.4101C19.0365 87.3097 19.0594 87.1637 19.1599 87.0907C19.2604 87.0177 19.4066 87.0405 19.4797 87.1409C19.658 87.3873 19.8362 87.6336 20.0189 87.8755C20.0921 87.9758 20.0738 88.1173 19.9733 88.1948C19.923 88.2222 19.8773 88.2405 19.8316 88.2405ZM32.4343 87.6063C32.384 87.6063 32.3337 87.588 32.2926 87.5561C32.1967 87.4785 32.1784 87.3325 32.2606 87.2367C32.448 87.0086 32.6262 86.7668 32.7953 86.5204C32.8684 86.4154 33.01 86.3926 33.1151 86.4611C33.2202 86.5341 33.2431 86.6755 33.1745 86.7804C33.0009 87.0359 32.8135 87.2869 32.617 87.5241C32.5668 87.5789 32.4982 87.6063 32.4343 87.6063ZM10.7749 87.2048C10.72 87.2048 10.6652 87.1865 10.6241 87.1454C10.4002 86.9447 10.1717 86.7348 9.95236 86.5204C9.86097 86.4337 9.8564 86.2877 9.94779 86.1964C10.0346 86.1052 10.1808 86.1006 10.2722 86.1919C10.4916 86.4017 10.7109 86.6071 10.9348 86.8078C11.0308 86.8899 11.0353 87.0359 10.9531 87.1318C10.9028 87.1819 10.8388 87.2048 10.7749 87.2048ZM155.075 86.5523C155.002 86.5523 154.929 86.5158 154.888 86.4519C154.718 86.201 154.549 85.9409 154.385 85.6854C154.316 85.5805 154.348 85.439 154.453 85.3706C154.559 85.3022 154.7 85.3341 154.769 85.439C154.929 85.69 155.098 85.9455 155.267 86.1964C155.335 86.3014 155.308 86.4428 155.207 86.5112C155.166 86.5386 155.121 86.5523 155.075 86.5523ZM18.5064 86.3835C18.4333 86.3835 18.3602 86.347 18.3191 86.2831C18.1455 86.0322 17.9764 85.7767 17.8073 85.5212C17.7388 85.4162 17.7662 85.2748 17.8713 85.2063C17.9764 85.1379 18.118 85.1653 18.1866 85.2702C18.3511 85.5212 18.5247 85.7767 18.6938 86.023C18.7669 86.128 18.7395 86.2694 18.6344 86.3424C18.5933 86.3698 18.5476 86.3835 18.5064 86.3835ZM33.6909 85.7128C33.6543 85.7128 33.6178 85.7037 33.5812 85.6854C33.4715 85.6261 33.4304 85.4892 33.4898 85.3752C33.6315 85.1151 33.764 84.8459 33.8874 84.5721C33.9376 84.4581 34.0747 84.4079 34.1889 84.4581C34.3032 84.5083 34.3535 84.6451 34.3032 84.7592C34.1752 85.0421 34.0382 85.3204 33.8919 85.5896C33.8508 85.6672 33.7731 85.7128 33.6909 85.7128ZM9.14356 85.6124C9.08415 85.6124 9.02018 85.5896 8.97905 85.5394C8.76886 85.3204 8.56323 85.0923 8.3576 84.8642C8.27535 84.7683 8.28449 84.6269 8.37588 84.5402C8.47184 84.4581 8.61349 84.4672 8.70031 84.5585C8.90137 84.782 9.107 85.0102 9.31263 85.2246C9.39945 85.3158 9.39488 85.4619 9.30349 85.5485C9.25779 85.5942 9.20296 85.6124 9.14356 85.6124ZM153.859 84.6269C153.782 84.6269 153.704 84.5858 153.663 84.5128C153.508 84.2528 153.357 83.9836 153.206 83.7189C153.147 83.6094 153.183 83.468 153.293 83.4087C153.402 83.3494 153.544 83.3859 153.604 83.4954C153.75 83.7554 153.901 84.0201 154.051 84.2801C154.115 84.3896 154.079 84.5265 153.969 84.5904C153.942 84.6132 153.901 84.6269 153.859 84.6269ZM17.2635 84.4718C17.1859 84.4718 17.1082 84.4307 17.0671 84.3577C16.9117 84.0976 16.7609 83.8239 16.6147 83.5547C16.5553 83.4452 16.5964 83.3037 16.7106 83.2444C16.8203 83.1851 16.962 83.2262 17.0214 83.3402C17.163 83.6049 17.3138 83.8695 17.4646 84.125C17.5286 84.2345 17.492 84.3714 17.3824 84.4353C17.3458 84.4626 17.3047 84.4718 17.2635 84.4718ZM7.64476 83.8969C7.57622 83.8969 7.51225 83.8695 7.46655 83.8102C7.27463 83.5729 7.08271 83.3311 6.89993 83.0893C6.82225 82.9889 6.8451 82.8475 6.94106 82.7699C7.04159 82.6924 7.18324 82.7152 7.26092 82.811C7.4437 83.0528 7.63105 83.2901 7.8184 83.5228C7.89608 83.6186 7.88238 83.7646 7.78642 83.8421C7.74529 83.8832 7.69503 83.8969 7.64476 83.8969ZM34.5911 83.6231C34.5682 83.6231 34.5408 83.6186 34.518 83.6094C34.3991 83.5684 34.3352 83.4406 34.3763 83.322C34.4723 83.0437 34.5591 82.7517 34.6368 82.4642C34.6687 82.341 34.7967 82.2726 34.9155 82.3045C35.0389 82.3365 35.1074 82.4642 35.0754 82.5829C34.9932 82.884 34.9064 83.1806 34.8058 83.468C34.7784 83.5593 34.687 83.6231 34.5911 83.6231ZM152.767 82.6285C152.685 82.6285 152.603 82.5829 152.562 82.5053C152.425 82.2361 152.288 81.9578 152.155 81.684C152.1 81.57 152.15 81.4331 152.26 81.3783C152.374 81.3236 152.511 81.3738 152.566 81.4833C152.699 81.757 152.831 82.0262 152.968 82.2954C153.028 82.4095 152.982 82.5464 152.868 82.6011C152.836 82.6194 152.804 82.6285 152.767 82.6285ZM16.208 82.4505C16.1212 82.4505 16.0389 82.4004 16.0024 82.3182C15.8744 82.0399 15.751 81.757 15.6322 81.4742C15.582 81.3555 15.6414 81.2232 15.7556 81.1776C15.8744 81.1274 16.0069 81.1867 16.0526 81.3008C16.1669 81.5791 16.2902 81.8574 16.4136 82.1266C16.4685 82.2407 16.4182 82.3775 16.2994 82.4277C16.272 82.446 16.24 82.4505 16.208 82.4505ZM6.27391 82.0764C6.2008 82.0764 6.13226 82.0445 6.08657 81.9806C5.91292 81.7297 5.73928 81.4742 5.57021 81.2186C5.50167 81.1137 5.52909 80.9723 5.63419 80.9038C5.73928 80.8354 5.88094 80.8628 5.94948 80.9677C6.11398 81.2186 6.28762 81.4696 6.45669 81.716C6.52981 81.8209 6.50239 81.9623 6.40186 82.0353C6.3653 82.0627 6.31961 82.0764 6.27391 82.0764ZM35.1577 81.4148C35.144 81.4148 35.1303 81.4148 35.1166 81.4103C34.9932 81.3875 34.9109 81.2688 34.9338 81.1456C34.9886 80.8536 35.0343 80.5571 35.0709 80.2559C35.0891 80.1328 35.2034 80.0415 35.3268 80.0597C35.4501 80.078 35.5415 80.1921 35.5232 80.3153C35.4821 80.6209 35.4364 80.9312 35.3816 81.2278C35.3633 81.3373 35.2673 81.4148 35.1577 81.4148ZM151.794 80.5708C151.707 80.5708 151.62 80.5206 151.584 80.4339C151.46 80.1556 151.342 79.8727 151.227 79.5898C151.182 79.4712 151.237 79.3389 151.351 79.2932C151.47 79.2476 151.602 79.3024 151.648 79.4164C151.762 79.6947 151.881 79.9731 152 80.2514C152.05 80.3654 152 80.5023 151.881 80.5525C151.853 80.5662 151.821 80.5708 151.794 80.5708ZM15.3535 80.3381C15.2575 80.3381 15.1707 80.2788 15.1387 80.1875C15.0382 79.9001 14.9422 79.6081 14.8509 79.316C14.8143 79.1974 14.8828 79.0697 15.0016 79.0286C15.1205 78.9921 15.2484 79.0605 15.2895 79.1792C15.3763 79.4666 15.4723 79.7541 15.5728 80.0369C15.614 80.1556 15.55 80.2879 15.4312 80.3289C15.4038 80.3335 15.3809 80.3381 15.3535 80.3381ZM5.03558 80.1647C4.9579 80.1647 4.88022 80.1236 4.83909 80.0552C4.68373 79.7951 4.52837 79.5259 4.37757 79.2613C4.3136 79.1518 4.35473 79.0104 4.46439 78.951C4.57406 78.8872 4.71572 78.9282 4.77512 79.0377C4.92134 79.2978 5.07671 79.5624 5.23207 79.8225C5.29604 79.932 5.26406 80.0689 5.15439 80.1373C5.11326 80.151 5.07214 80.1647 5.03558 80.1647ZM35.4273 79.1518C35.4227 79.1518 35.4181 79.1518 35.4136 79.1518C35.2856 79.1427 35.1897 79.0377 35.1988 78.91C35.2171 78.6134 35.2262 78.3123 35.2308 78.0066C35.2308 77.8788 35.3359 77.7785 35.4638 77.783C35.5918 77.783 35.6923 77.888 35.6877 78.0157C35.6832 78.326 35.6695 78.6362 35.6512 78.9373C35.6466 79.056 35.5461 79.1518 35.4273 79.1518ZM150.939 78.4583C150.848 78.4583 150.761 78.4035 150.725 78.3077C150.62 78.0248 150.515 77.7328 150.414 77.4454C150.373 77.3268 150.437 77.1944 150.556 77.1534C150.674 77.1123 150.807 77.1762 150.848 77.2948C150.949 77.5777 151.049 77.8652 151.154 78.148C151.2 78.2667 151.136 78.399 151.022 78.44C150.99 78.4537 150.962 78.4583 150.939 78.4583ZM3.92519 78.1708C3.84294 78.1708 3.76069 78.1252 3.71957 78.0476C3.57791 77.7739 3.44083 77.5001 3.30831 77.2264C3.25348 77.1123 3.30374 76.9754 3.41341 76.9207C3.52765 76.8659 3.66473 76.9161 3.71957 77.0256C3.84751 77.2948 3.9846 77.5686 4.12168 77.8378C4.18109 77.9518 4.13539 78.0887 4.02115 78.1435C3.99374 78.1617 3.96175 78.1708 3.92519 78.1708ZM14.6955 78.1572C14.595 78.1572 14.499 78.0887 14.4762 77.9838C14.403 77.6872 14.3299 77.3861 14.266 77.0895C14.2385 76.9663 14.3162 76.8431 14.4396 76.8203C14.563 76.7929 14.6864 76.8705 14.7092 76.9937C14.7732 77.2857 14.8417 77.5823 14.9148 77.8743C14.9468 77.9975 14.8737 78.1207 14.7503 78.1526C14.7366 78.1526 14.7138 78.1572 14.6955 78.1572ZM35.441 76.8705C35.3176 76.8705 35.2171 76.7747 35.2125 76.6515C35.1988 76.3549 35.1805 76.0492 35.1577 75.7481C35.1485 75.6203 35.2399 75.5108 35.3679 75.5017C35.4958 75.4926 35.6055 75.5839 35.6146 75.7116C35.6375 76.0173 35.6603 76.3276 35.6695 76.6287C35.674 76.7564 35.5781 76.8614 35.4501 76.8659C35.4456 76.8705 35.4456 76.8705 35.441 76.8705ZM150.199 76.3002C150.103 76.3002 150.012 76.2363 149.98 76.1405C149.889 75.853 149.802 75.5565 149.715 75.2645C149.678 75.1413 149.751 75.0181 149.87 74.9816C149.994 74.9451 150.117 75.0181 150.154 75.1367C150.236 75.4287 150.327 75.7207 150.414 76.0036C150.451 76.1222 150.382 76.25 150.263 76.2911C150.245 76.3002 150.222 76.3002 150.199 76.3002ZM2.95189 76.1086C2.86507 76.1086 2.77825 76.0584 2.7417 75.9717C2.61832 75.6888 2.49951 75.4059 2.38984 75.123C2.34415 75.0044 2.39898 74.8721 2.51779 74.8265C2.6366 74.7808 2.76911 74.8356 2.81481 74.9542C2.92448 75.2325 3.04328 75.5154 3.16209 75.7937C3.21235 75.9078 3.15752 76.0447 3.04328 76.0949C3.0113 76.104 2.97931 76.1086 2.95189 76.1086ZM14.2385 75.926C14.1289 75.926 14.0329 75.8439 14.0146 75.7344C13.9644 75.4333 13.9232 75.1276 13.8867 74.8219C13.873 74.6987 13.9598 74.5846 14.0877 74.5664C14.2111 74.5527 14.3254 74.6394 14.3436 74.7671C14.3802 75.0637 14.4213 75.3648 14.4716 75.6614C14.4899 75.7846 14.4076 75.9032 14.2842 75.9215C14.2614 75.9215 14.2477 75.926 14.2385 75.926ZM35.2399 74.6029C35.1257 74.6029 35.0297 74.5208 35.0115 74.4067C34.9703 74.1101 34.9292 73.809 34.8789 73.5124C34.8561 73.3892 34.9429 73.2706 35.0663 73.2524C35.1897 73.2296 35.3085 73.3162 35.3268 73.4394C35.377 73.7406 35.4227 74.0463 35.4638 74.3474C35.4821 74.4706 35.3907 74.5892 35.2673 74.6029C35.2582 74.6029 35.2491 74.6029 35.2399 74.6029ZM149.578 74.1101C149.477 74.1101 149.381 74.0417 149.358 73.9368C149.285 73.6448 149.212 73.3436 149.139 73.0471C149.112 72.9239 149.185 72.8007 149.308 72.7733C149.432 72.7459 149.555 72.8189 149.582 72.9421C149.651 73.2387 149.724 73.5307 149.797 73.8227C149.829 73.9459 149.756 74.0691 149.633 74.101C149.619 74.1056 149.601 74.1101 149.578 74.1101ZM2.11568 73.9869C2.01972 73.9869 1.9329 73.9276 1.90091 73.8364C1.80038 73.5489 1.69985 73.2569 1.60846 72.9649C1.57191 72.8463 1.63588 72.7185 1.75469 72.6775C1.87349 72.641 2.00144 72.7049 2.04256 72.8235C2.13395 73.1064 2.22991 73.3984 2.33044 73.6813C2.37157 73.7999 2.31216 73.9322 2.18879 73.9733C2.16594 73.9824 2.14309 73.9869 2.11568 73.9869ZM13.9781 73.6584C13.8593 73.6584 13.7587 73.5672 13.7496 73.444C13.7268 73.1383 13.713 72.828 13.7039 72.5269C13.6993 72.3992 13.7999 72.2942 13.9232 72.2897C14.0512 72.2851 14.1563 72.3855 14.1609 72.5087C14.17 72.8052 14.1837 73.1109 14.2066 73.4121C14.2157 73.5398 14.1197 73.6448 13.9964 73.6539C13.9918 73.6584 13.9826 73.6584 13.9781 73.6584ZM34.8515 72.3581C34.7464 72.3581 34.6505 72.2851 34.6276 72.1756C34.5636 71.8836 34.4951 71.587 34.4266 71.295C34.3946 71.1718 34.4723 71.0486 34.5956 71.0213C34.719 70.9893 34.8424 71.0669 34.8698 71.1901C34.9429 71.4866 35.0115 71.7878 35.0754 72.0844C35.1028 72.2075 35.0252 72.3307 34.9018 72.3535C34.8835 72.3535 34.8652 72.3581 34.8515 72.3581ZM149.071 71.8882C148.965 71.8882 148.87 71.8152 148.847 71.7057C148.787 71.4091 148.728 71.108 148.673 70.8068C148.65 70.6836 148.732 70.565 148.856 70.5422C148.979 70.5194 149.098 70.6015 149.121 70.7247C149.176 71.0213 149.235 71.3224 149.294 71.6144C149.322 71.7376 149.24 71.8562 149.116 71.8836C149.103 71.8882 149.084 71.8882 149.071 71.8882ZM1.43482 71.8106C1.33429 71.8106 1.2429 71.7421 1.21549 71.6418C1.1835 71.5323 1.15608 71.4228 1.12866 71.3133C1.0784 71.1308 1.03271 70.9391 0.987011 70.7521C0.959594 70.6289 1.03271 70.5057 1.15608 70.4783C1.27946 70.4464 1.40283 70.5239 1.43025 70.6471C1.47595 70.8296 1.52164 71.0167 1.56734 71.1992C1.59475 71.3087 1.62217 71.4136 1.65416 71.5231C1.68614 71.6463 1.6176 71.7695 1.49422 71.8015C1.47595 71.806 1.45767 71.8106 1.43482 71.8106ZM13.9324 71.3817H13.9278C13.7999 71.3771 13.7039 71.2722 13.7039 71.149C13.713 70.8433 13.7268 70.5331 13.745 70.2274C13.7542 70.0996 13.8638 70.0038 13.9872 70.0129C14.1152 70.0221 14.2066 70.1316 14.202 70.2548C14.1837 70.5513 14.17 70.857 14.1609 71.1581C14.1563 71.2813 14.0558 71.3817 13.9324 71.3817ZM34.2849 70.1498C34.1889 70.1498 34.0976 70.0859 34.0656 69.9856C33.9788 69.6981 33.8874 69.4061 33.7868 69.1232C33.7457 69.0046 33.8097 68.8723 33.9285 68.8312C34.0473 68.7902 34.1798 68.854 34.2209 68.9727C34.3215 69.2601 34.4129 69.5567 34.5042 69.8487C34.5408 69.9673 34.4723 70.0951 34.3535 70.1316C34.3306 70.1452 34.3078 70.1498 34.2849 70.1498ZM148.668 69.6434C148.559 69.6434 148.458 69.5612 148.445 69.4517C148.399 69.1552 148.353 68.8495 148.312 68.5438C148.294 68.4206 148.381 68.302 148.509 68.2883C148.632 68.27 148.751 68.3567 148.764 68.4845C148.806 68.7856 148.851 69.0867 148.897 69.3833C148.915 69.5065 148.833 69.6251 148.705 69.6434C148.691 69.6434 148.678 69.6434 148.668 69.6434ZM0.913899 69.5886C0.8088 69.5886 0.712841 69.5156 0.689994 69.4061C0.63059 69.1095 0.575756 68.8038 0.520922 68.5027C0.498075 68.3795 0.584895 68.2609 0.708271 68.2381C0.831648 68.2153 0.950455 68.302 0.973302 68.4251C1.02357 68.7217 1.0784 69.0229 1.1378 69.3149C1.16065 69.438 1.08297 69.5567 0.959594 69.584C0.945885 69.5886 0.927607 69.5886 0.913899 69.5886ZM14.1106 69.1095C14.1015 69.1095 14.0877 69.1095 14.074 69.105C13.9507 69.0867 13.8638 68.9681 13.8821 68.8449C13.9278 68.5438 13.9872 68.2335 14.0603 67.9324C14.0877 67.8092 14.2111 67.7316 14.3345 67.7636C14.4579 67.791 14.5356 67.9141 14.5036 68.0373C14.435 68.3293 14.3756 68.6213 14.3345 68.9133C14.3208 69.032 14.2248 69.1095 14.1106 69.1095ZM33.5264 68.0008C33.435 68.0008 33.3527 67.9461 33.3162 67.8594C33.2019 67.5811 33.0786 67.3028 32.9552 67.0336C32.9004 66.9195 32.9506 66.7826 33.0694 66.7324C33.1837 66.6777 33.3207 66.7279 33.371 66.8465C33.499 67.1203 33.6223 67.4077 33.7366 67.6906C33.7823 67.8092 33.7274 67.9415 33.6132 67.9871C33.5812 67.9963 33.5538 68.0008 33.5264 68.0008ZM148.371 67.3849C148.257 67.3849 148.157 67.2982 148.143 67.1796C148.111 66.8784 148.079 66.5727 148.052 66.267C148.038 66.1393 148.134 66.0298 148.257 66.0207C148.385 66.0115 148.495 66.1028 148.504 66.226C148.531 66.5271 148.563 66.8282 148.595 67.1294C148.609 67.2526 148.518 67.3666 148.394 67.3803C148.385 67.3849 148.376 67.3849 148.371 67.3849ZM0.54377 67.3438C0.429532 67.3438 0.333573 67.2617 0.315295 67.1476C0.27417 66.8465 0.237614 66.5408 0.205627 66.2351C0.191919 66.1119 0.283309 65.9979 0.406685 65.9842C0.534631 65.9705 0.644299 66.0617 0.658007 66.1849C0.689993 66.486 0.726549 66.7872 0.763105 67.0838C0.781383 67.2069 0.689993 67.3256 0.566617 67.3393C0.562048 67.3393 0.552909 67.3438 0.54377 67.3438ZM14.6772 66.9058C14.6498 66.9058 14.6269 66.9012 14.5995 66.8921C14.4807 66.8511 14.4213 66.7187 14.4624 66.6001C14.5675 66.3127 14.6864 66.0207 14.8143 65.7378C14.8646 65.6237 15.0016 65.5735 15.1159 65.6237C15.2301 65.6739 15.2804 65.8108 15.2301 65.9249C15.1067 66.1986 14.9925 66.4769 14.892 66.7552C14.86 66.8511 14.7732 66.9058 14.6772 66.9058ZM32.5485 65.9385C32.4662 65.9385 32.3886 65.8975 32.3474 65.8199C32.2012 65.5553 32.0504 65.2907 31.8996 65.0397C31.8357 64.9302 31.8676 64.7933 31.9773 64.7249C32.087 64.661 32.2241 64.693 32.2926 64.8025C32.448 65.058 32.6033 65.3272 32.7541 65.6009C32.8135 65.7104 32.7724 65.8519 32.6627 65.9112C32.6216 65.9294 32.5851 65.9385 32.5485 65.9385ZM148.17 65.1173C148.052 65.1173 147.951 65.026 147.942 64.9028C147.924 64.6017 147.905 64.2914 147.887 63.9903C147.883 63.8626 147.978 63.7576 148.102 63.7531C148.225 63.7485 148.335 63.8443 148.339 63.9675C148.353 64.2686 148.371 64.5743 148.39 64.8755C148.399 65.0032 148.303 65.1082 148.175 65.1173C148.18 65.1173 148.175 65.1173 148.17 65.1173ZM0.315295 65.0762C0.196488 65.0762 0.0959594 64.985 0.0868204 64.8618C0.0639729 64.5606 0.0502644 64.2504 0.0365559 63.9447C0.0319865 63.8169 0.127946 63.712 0.255892 63.7074C0.379268 63.7029 0.488936 63.7987 0.493505 63.9264C0.507214 64.2276 0.525492 64.5333 0.54377 64.8298C0.552909 64.9576 0.456949 65.0625 0.333573 65.0716C0.324434 65.0716 0.319865 65.0762 0.315295 65.0762ZM15.6505 64.8481C15.6094 64.8481 15.5728 64.839 15.5363 64.8161C15.4266 64.7523 15.3901 64.6108 15.454 64.5059C15.6094 64.2413 15.7785 63.9766 15.9567 63.7257C16.0298 63.6207 16.1714 63.5979 16.2765 63.6664C16.3816 63.7394 16.4045 63.8808 16.3359 63.9858C16.1669 64.2276 16.0024 64.4831 15.8516 64.7386C15.8059 64.807 15.7282 64.8481 15.6505 64.8481ZM31.333 64.0131C31.2645 64.0131 31.1914 63.9812 31.1502 63.9173C30.972 63.6709 30.7847 63.4337 30.5973 63.2101C30.5151 63.1143 30.5288 62.9683 30.6293 62.8907C30.7253 62.8086 30.8715 62.8223 30.9492 62.9227C31.1411 63.1554 31.333 63.4017 31.5204 63.6527C31.5935 63.7531 31.5706 63.8991 31.4701 63.9721C31.429 63.9994 31.3787 64.0131 31.333 64.0131ZM16.9848 63.0002C16.93 63.0002 16.8797 62.982 16.834 62.9455C16.7381 62.8634 16.7289 62.7174 16.8112 62.6215C17.0168 62.3889 17.2316 62.1607 17.4509 61.9463C17.5423 61.8596 17.6839 61.8596 17.7753 61.9508C17.8621 62.0421 17.8621 62.1835 17.7708 62.2748C17.5606 62.4801 17.3504 62.6991 17.1539 62.9227C17.1128 62.9774 17.0488 63.0002 16.9848 63.0002ZM148.07 62.8405C147.946 62.8405 147.846 62.7402 147.841 62.617C147.832 62.3158 147.828 62.0056 147.828 61.7045C147.828 61.5767 147.928 61.4763 148.056 61.4763C148.18 61.4763 148.285 61.5767 148.285 61.7045C148.289 62.0056 148.294 62.3113 148.298 62.6124C148.303 62.7402 148.202 62.8451 148.074 62.8451C148.074 62.8405 148.07 62.8405 148.07 62.8405ZM0.228475 62.7949C0.105098 62.7949 0 62.6945 0 62.5668C0 62.471 0 62.3752 0 62.2748C0 62.0695 0 61.855 0.00456949 61.6497C0.00456949 61.522 0.109668 61.4216 0.237614 61.4261C0.365559 61.4261 0.466088 61.5311 0.461519 61.6588C0.456949 61.8642 0.456949 62.074 0.456949 62.2793C0.456949 62.3752 0.456949 62.471 0.456949 62.5668C0.456949 62.6945 0.35642 62.7949 0.228475 62.7949ZM29.8434 62.2885C29.784 62.2885 29.7291 62.2657 29.6834 62.2246C29.4687 62.0147 29.2448 61.814 29.0163 61.6315C28.9203 61.5493 28.9066 61.4079 28.9843 61.3121C29.0665 61.2163 29.2082 61.2026 29.3042 61.2801C29.5372 61.4718 29.7748 61.6816 29.9987 61.9007C30.0901 61.9873 30.0901 62.1333 30.0033 62.2246C29.9622 62.2657 29.9028 62.2885 29.8434 62.2885ZM18.6527 61.449C18.5841 61.449 18.5156 61.417 18.4699 61.3577C18.3922 61.2573 18.4151 61.1159 18.5156 61.0383C18.7669 60.8513 19.0274 60.6733 19.2878 60.5136C19.3929 60.4452 19.5346 60.4817 19.6031 60.5866C19.6717 60.6916 19.6351 60.833 19.53 60.9014C19.2833 61.0566 19.0319 61.2254 18.7943 61.4033C18.7486 61.4353 18.7029 61.449 18.6527 61.449ZM28.0521 60.8878C28.011 60.8878 27.9699 60.8786 27.9333 60.8558C27.6774 60.7007 27.417 60.5593 27.1519 60.4315C27.0377 60.3767 26.992 60.2399 27.0468 60.1258C27.1017 60.0117 27.2387 59.9661 27.353 60.0209C27.6317 60.1532 27.9059 60.3037 28.1755 60.468C28.2852 60.5319 28.3171 60.6733 28.2532 60.7828C28.2029 60.8467 28.1298 60.8878 28.0521 60.8878ZM148.061 60.5593C148.056 60.5593 148.056 60.5593 148.061 60.5593C147.933 60.5593 147.832 60.4543 147.832 60.3266C147.837 60.0254 147.846 59.7152 147.855 59.4095C147.86 59.2817 147.965 59.1859 148.093 59.1905C148.221 59.195 148.317 59.3 148.312 59.4277C148.303 59.7289 148.294 60.0346 148.289 60.3357C148.285 60.4634 148.184 60.5593 148.061 60.5593ZM0.278739 60.5182C0.27417 60.5182 0.2696 60.5182 0.265031 60.5182C0.137085 60.5136 0.0411254 60.4041 0.0502644 60.2809C0.0639729 59.9798 0.0868204 59.6695 0.105098 59.3639C0.114237 59.2361 0.223905 59.1449 0.347281 59.154C0.475227 59.1631 0.566617 59.2726 0.557478 59.4004C0.534631 59.7015 0.516353 60.0072 0.502644 60.3037C0.502644 60.4224 0.402115 60.5182 0.278739 60.5182ZM20.6221 60.2992C20.5353 60.2992 20.4485 60.249 20.4119 60.1623C20.3617 60.0482 20.4165 59.9114 20.5307 59.8612C20.8186 59.738 21.1156 59.6285 21.4081 59.5372C21.5269 59.5007 21.6548 59.5692 21.6914 59.6878C21.7279 59.8064 21.6594 59.9342 21.5406 59.9707C21.2619 60.0574 20.9831 60.1577 20.7089 60.2764C20.6815 60.2946 20.6495 60.2992 20.6221 60.2992ZM25.973 59.9616C25.9502 59.9616 25.9319 59.957 25.909 59.9524C25.6257 59.8703 25.3378 59.8019 25.0454 59.7517C24.922 59.7289 24.8398 59.6102 24.858 59.487C24.8809 59.3639 24.9997 59.2817 25.1231 59.3C25.4292 59.3547 25.7354 59.4232 26.037 59.5099C26.1603 59.5464 26.2289 59.6695 26.1923 59.7927C26.1649 59.8977 26.0735 59.9616 25.973 59.9616ZM22.8109 59.7015C22.6967 59.7015 22.6007 59.6148 22.5824 59.5007C22.5687 59.3775 22.6555 59.2635 22.7789 59.2452C23.0896 59.2042 23.4049 59.1859 23.7157 59.1859C23.8436 59.1859 23.9441 59.2863 23.9441 59.414C23.9441 59.5418 23.8436 59.6422 23.7157 59.6422C23.4232 59.6422 23.1262 59.665 22.8338 59.7015C22.8338 59.7015 22.82 59.7015 22.8109 59.7015ZM148.138 58.2825C148.134 58.2825 148.129 58.2825 148.125 58.2825C147.997 58.278 147.901 58.1685 147.91 58.0407C147.928 57.735 147.946 57.4293 147.965 57.1282C147.974 57.0004 148.084 56.9092 148.207 56.9183C148.335 56.9274 148.426 57.0369 148.417 57.1601C148.394 57.4613 148.376 57.7669 148.362 58.0681C148.358 58.1913 148.257 58.2825 148.138 58.2825ZM0.456949 58.246C0.44781 58.246 0.438671 58.246 0.434102 58.246C0.310726 58.2323 0.219336 58.1183 0.233044 57.9951C0.265031 57.6939 0.301587 57.3883 0.338143 57.0826C0.351851 56.9594 0.466088 56.8681 0.594034 56.8864C0.71741 56.9001 0.8088 57.0187 0.790522 57.1419C0.753966 57.443 0.71741 57.7441 0.685424 58.0407C0.671715 58.1593 0.571187 58.246 0.456949 58.246ZM148.303 56.0104C148.294 56.0104 148.289 56.0104 148.28 56.0104C148.157 55.9967 148.061 55.8872 148.074 55.764C148.102 55.4628 148.134 55.1526 148.166 54.8515C148.18 54.7283 148.294 54.637 148.417 54.6507C148.541 54.6644 148.632 54.7785 148.618 54.9016C148.586 55.2028 148.554 55.5039 148.527 55.805C148.522 55.9237 148.422 56.0104 148.303 56.0104ZM0.758536 55.9875C0.744827 55.9875 0.735688 55.9875 0.72198 55.983C0.598604 55.9647 0.511783 55.8461 0.530061 55.7229C0.575756 55.4218 0.63059 55.1206 0.685424 54.8195C0.708271 54.6963 0.827078 54.6142 0.950455 54.637C1.07383 54.6598 1.15608 54.7785 1.13323 54.9016C1.0784 55.1982 1.02814 55.4993 0.982441 55.7959C0.964163 55.9054 0.868204 55.9875 0.758536 55.9875ZM1.16979 53.7473C1.15608 53.7473 1.1378 53.7473 1.1241 53.7427C1.00072 53.7154 0.923038 53.5967 0.945885 53.4736C1.00986 53.177 1.07383 52.8759 1.14237 52.5793C1.16979 52.4561 1.29317 52.3785 1.41654 52.4105C1.53992 52.4378 1.6176 52.561 1.58561 52.6842C1.51707 52.9762 1.4531 53.2774 1.38913 53.5694C1.37085 53.6697 1.27946 53.7473 1.16979 53.7473ZM148.554 53.7427C148.545 53.7427 148.536 53.7427 148.527 53.7427C148.403 53.7245 148.312 53.6104 148.33 53.4872C148.362 53.2546 148.394 53.0173 148.426 52.78L148.454 52.5793C148.472 52.4561 148.586 52.3694 148.714 52.3877C148.838 52.4059 148.924 52.52 148.906 52.6477L148.879 52.8485C148.847 53.0812 148.815 53.3184 148.783 53.5466C148.764 53.6606 148.668 53.7427 148.554 53.7427ZM105.245 51.9816C105.117 51.9816 105.016 51.8812 105.016 51.7535C105.016 51.6257 105.117 51.5253 105.245 51.5253C105.546 51.5253 105.852 51.5253 106.158 51.5208C106.282 51.5208 106.387 51.6211 106.387 51.7489C106.387 51.8766 106.286 51.977 106.158 51.977C105.857 51.9816 105.546 51.9816 105.245 51.9816ZM103.878 51.977C103.874 51.977 103.874 51.977 103.878 51.977C103.572 51.9725 103.266 51.9725 102.96 51.9679C102.832 51.9679 102.731 51.863 102.736 51.7352C102.736 51.6075 102.841 51.5116 102.969 51.5116C103.271 51.5162 103.577 51.5208 103.878 51.5208C104.006 51.5208 104.107 51.6257 104.107 51.7489C104.102 51.8766 104.002 51.977 103.878 51.977ZM107.529 51.9588C107.406 51.9588 107.305 51.8584 107.301 51.7352C107.296 51.6075 107.397 51.5071 107.525 51.5025C107.826 51.498 108.132 51.4888 108.434 51.4843H108.439C108.562 51.4843 108.663 51.5846 108.667 51.7078C108.672 51.8356 108.571 51.9405 108.443 51.9405C108.142 51.9496 107.835 51.9542 107.529 51.9588ZM101.594 51.936H101.589C101.287 51.9268 100.977 51.9177 100.675 51.9086C100.547 51.904 100.451 51.7991 100.456 51.6713C100.46 51.5436 100.565 51.4478 100.693 51.4523C100.995 51.4614 101.301 51.4706 101.603 51.4797C101.731 51.4843 101.827 51.5892 101.827 51.7124C101.817 51.8401 101.717 51.936 101.594 51.936ZM109.809 51.8995C109.686 51.8995 109.586 51.8036 109.581 51.6805C109.576 51.5527 109.677 51.4478 109.8 51.4432C110.102 51.4341 110.408 51.4204 110.71 51.4067C110.838 51.4021 110.943 51.498 110.947 51.6257C110.952 51.7535 110.856 51.8584 110.728 51.863C110.422 51.8766 110.12 51.8858 109.814 51.8995C109.814 51.8995 109.814 51.8995 109.809 51.8995ZM99.3134 51.863C99.3088 51.863 99.3088 51.863 99.3042 51.863C99.0026 51.8493 98.6919 51.8356 98.3903 51.8219C98.2624 51.8173 98.1664 51.7078 98.1756 51.5846C98.1801 51.4569 98.2898 51.3611 98.4132 51.3702C98.7148 51.3839 99.0209 51.3976 99.3225 51.4113C99.4505 51.4158 99.5464 51.5208 99.5418 51.6485C99.5373 51.7671 99.4322 51.863 99.3134 51.863ZM112.09 51.7991C111.971 51.7991 111.87 51.7033 111.861 51.5846C111.857 51.4569 111.953 51.352 112.076 51.3428C112.378 51.3291 112.684 51.3109 112.985 51.2926C113.109 51.2835 113.218 51.3793 113.227 51.5071C113.237 51.6348 113.141 51.7398 113.013 51.7489C112.707 51.7671 112.405 51.7854 112.099 51.7991C112.099 51.7991 112.094 51.7991 112.09 51.7991ZM97.0332 51.7443C97.0286 51.7443 97.024 51.7443 97.0195 51.7443C96.7179 51.7261 96.4117 51.7078 96.1056 51.6896C95.9776 51.6805 95.8862 51.571 95.8908 51.4478C95.8954 51.3246 96.0096 51.2288 96.133 51.2333C96.4346 51.2516 96.7407 51.2744 97.0423 51.2881C97.1703 51.2972 97.2662 51.4021 97.2571 51.5299C97.2525 51.6531 97.152 51.7443 97.0332 51.7443ZM114.37 51.6622C114.251 51.6622 114.151 51.571 114.141 51.4478C114.132 51.32 114.228 51.2151 114.352 51.2059C114.653 51.1831 114.959 51.1649 115.261 51.1421C115.389 51.1329 115.499 51.2288 115.508 51.3519C115.517 51.4797 115.421 51.5892 115.297 51.5983C114.991 51.6211 114.69 51.644 114.384 51.6622C114.379 51.6622 114.374 51.6622 114.37 51.6622ZM94.753 51.5938C94.7484 51.5938 94.7393 51.5938 94.7347 51.5938C94.4331 51.571 94.1224 51.5481 93.8208 51.5208C93.6929 51.5116 93.6015 51.4021 93.6106 51.2744C93.6198 51.1466 93.7294 51.0554 93.8574 51.0645C94.159 51.0873 94.4651 51.1147 94.7667 51.1375C94.8947 51.1466 94.9861 51.2561 94.9769 51.3839C94.9724 51.5025 94.8718 51.5938 94.753 51.5938ZM1.69528 51.5253C1.677 51.5253 1.65873 51.5208 1.63588 51.5162C1.5125 51.4843 1.43939 51.3611 1.47138 51.2379C1.54906 50.9459 1.62674 50.6493 1.70899 50.3527C1.74098 50.2296 1.86892 50.1611 1.9923 50.1931C2.11568 50.225 2.18422 50.3527 2.15223 50.4759C2.06998 50.7679 1.9923 51.0599 1.91462 51.3519C1.8872 51.4569 1.79581 51.5253 1.69528 51.5253ZM148.883 51.4888C148.87 51.4888 148.86 51.4888 148.847 51.4843C148.723 51.466 148.636 51.3474 148.659 51.2242C148.71 50.9231 148.76 50.6174 148.81 50.3208C148.833 50.1976 148.952 50.1155 149.075 50.1337C149.199 50.1566 149.281 50.2752 149.262 50.3984C149.212 50.6949 149.162 50.9961 149.112 51.2926C149.089 51.4113 148.993 51.4888 148.883 51.4888ZM116.645 51.4888C116.527 51.4888 116.426 51.3976 116.417 51.2789C116.408 51.1512 116.499 51.0417 116.627 51.0326C116.929 51.0052 117.23 50.9778 117.536 50.9504C117.664 50.9368 117.774 51.0326 117.783 51.1558C117.797 51.2789 117.701 51.393 117.578 51.4021C117.276 51.4295 116.965 51.4569 116.668 51.4843C116.659 51.4888 116.655 51.4888 116.645 51.4888ZM92.482 51.4021C92.4728 51.4021 92.4683 51.4021 92.4591 51.4021C92.1575 51.3748 91.8514 51.3428 91.5498 51.3154C91.4264 51.3018 91.3305 51.1923 91.3442 51.0645C91.3579 50.9413 91.4675 50.8455 91.5955 50.8592C91.8971 50.8911 92.1987 50.9185 92.5048 50.9459C92.6328 50.9596 92.7242 51.0691 92.7104 51.1923C92.6967 51.3109 92.5962 51.4021 92.482 51.4021ZM118.921 51.2744C118.807 51.2744 118.706 51.1877 118.693 51.0691C118.679 50.9459 118.77 50.8318 118.898 50.8181C119.2 50.7862 119.501 50.7542 119.803 50.7223C119.926 50.7086 120.041 50.7999 120.054 50.9231C120.068 51.0463 119.977 51.1603 119.853 51.174C119.552 51.2059 119.245 51.2379 118.944 51.2698C118.935 51.2744 118.926 51.2744 118.921 51.2744ZM90.2109 51.1694C90.2018 51.1694 90.1927 51.1694 90.1835 51.1694C89.8819 51.1375 89.5758 51.101 89.2742 51.0645C89.1508 51.0508 89.0594 50.9368 89.0731 50.8136C89.0868 50.6904 89.2011 50.5991 89.3245 50.6128C89.626 50.6493 89.9276 50.6812 90.2292 50.7132C90.3526 50.7269 90.444 50.8409 90.4303 50.9641C90.4211 51.0828 90.3252 51.1694 90.2109 51.1694ZM121.188 51.0234C121.073 51.0234 120.973 50.9368 120.959 50.8227C120.945 50.6995 121.032 50.5854 121.16 50.5672C121.462 50.5307 121.768 50.4942 122.065 50.4577C122.188 50.444 122.302 50.5307 122.321 50.6539C122.334 50.7771 122.248 50.8911 122.124 50.9094C121.823 50.9459 121.517 50.9869 121.215 51.0189C121.206 51.0234 121.197 51.0234 121.188 51.0234ZM87.9399 50.9003C87.9308 50.9003 87.9216 50.9003 87.9125 50.9003C87.6109 50.8638 87.3047 50.8227 87.0077 50.7816C86.8843 50.7634 86.793 50.6493 86.8112 50.5261C86.8295 50.4029 86.9437 50.3117 87.0671 50.3299C87.3687 50.371 87.6703 50.4075 87.9719 50.4486C88.0953 50.4622 88.1867 50.5809 88.1684 50.7041C88.1547 50.8181 88.0541 50.9003 87.9399 50.9003ZM123.454 50.7314C123.34 50.7314 123.244 50.6493 123.23 50.5352C123.212 50.4121 123.299 50.2934 123.427 50.2797C123.724 50.2387 124.03 50.1976 124.331 50.152C124.455 50.1337 124.574 50.2204 124.592 50.3436C124.61 50.4668 124.523 50.5854 124.4 50.6037C124.098 50.6447 123.792 50.6904 123.495 50.7314C123.472 50.7314 123.463 50.7314 123.454 50.7314ZM85.678 50.5946C85.6689 50.5946 85.6552 50.5946 85.646 50.59C85.349 50.5489 85.0428 50.5033 84.7412 50.4577C84.6179 50.4394 84.5311 50.3208 84.5493 50.1976C84.5676 50.0744 84.6864 49.9877 84.8098 50.006C85.1114 50.0516 85.413 50.0972 85.71 50.1383C85.8334 50.1566 85.9202 50.2706 85.9019 50.3984C85.8882 50.5124 85.7922 50.5946 85.678 50.5946ZM125.711 50.4029C125.602 50.4029 125.501 50.3208 125.487 50.2113C125.469 50.0881 125.551 49.9695 125.679 49.9512C125.976 49.9056 126.283 49.8554 126.58 49.8098C126.703 49.7915 126.822 49.8737 126.84 49.9969C126.858 50.1201 126.776 50.2387 126.653 50.2569C126.351 50.3071 126.049 50.3527 125.748 50.3984C125.734 50.4029 125.725 50.4029 125.711 50.4029ZM83.4252 50.2524C83.4115 50.2524 83.4024 50.2524 83.3887 50.2478C83.0917 50.1976 82.7855 50.1474 82.4885 50.0972C82.3651 50.0744 82.2783 49.9604 82.3011 49.8326C82.324 49.7094 82.4382 49.6227 82.5662 49.6455C82.8678 49.6957 83.1693 49.7459 83.4664 49.7961C83.5897 49.8144 83.6766 49.933 83.6537 50.0562C83.6309 50.1702 83.5349 50.2524 83.4252 50.2524ZM127.964 50.0379C127.854 50.0379 127.758 49.9604 127.74 49.8463C127.717 49.7231 127.804 49.6045 127.928 49.5817C128.229 49.5315 128.531 49.4767 128.828 49.4265C128.951 49.4037 129.07 49.4859 129.093 49.609C129.116 49.7322 129.033 49.8509 128.91 49.8737C128.613 49.9284 128.311 49.9786 128.01 50.0334C127.992 50.0334 127.978 50.0379 127.964 50.0379ZM81.1725 49.8691C81.1588 49.8691 81.1451 49.8691 81.1314 49.8645C80.8298 49.8098 80.5282 49.755 80.2312 49.7003C80.1078 49.6775 80.0255 49.5589 80.0484 49.4357C80.0712 49.3125 80.19 49.2303 80.3134 49.2532C80.6104 49.3079 80.912 49.3627 81.209 49.4174C81.3324 49.4402 81.4147 49.5589 81.3918 49.682C81.3781 49.7915 81.2822 49.8691 81.1725 49.8691ZM130.212 49.6319C130.103 49.6319 130.007 49.5543 129.988 49.4448C129.966 49.3216 130.048 49.203 130.171 49.1802C130.468 49.1254 130.77 49.0661 131.067 49.0068C131.19 48.984 131.309 49.0615 131.336 49.1847C131.359 49.3079 131.282 49.4265 131.158 49.4539C130.861 49.5132 130.56 49.5725 130.258 49.6273C130.24 49.6319 130.226 49.6319 130.212 49.6319ZM78.9289 49.4448C78.9152 49.4448 78.9014 49.4448 78.8832 49.4402C78.5861 49.3809 78.2846 49.3216 77.9875 49.2623C77.8642 49.2349 77.7819 49.1163 77.8093 48.9931C77.8367 48.8699 77.9556 48.7878 78.0789 48.8152C78.3759 48.8745 78.673 48.9338 78.9746 48.9931C79.0979 49.0159 79.1802 49.1391 79.1528 49.2623C79.1299 49.3718 79.0385 49.4448 78.9289 49.4448ZM2.3213 49.3353C2.29845 49.3353 2.27561 49.3307 2.25276 49.3262C2.13395 49.2897 2.06541 49.1619 2.10197 49.0387C2.19336 48.7467 2.28932 48.4547 2.38984 48.1673C2.43097 48.0486 2.56349 47.9848 2.68229 48.0258C2.8011 48.0669 2.86507 48.1992 2.82395 48.3178C2.72342 48.6007 2.62746 48.8882 2.54064 49.1756C2.50865 49.2714 2.41726 49.3353 2.3213 49.3353ZM149.281 49.244C149.267 49.244 149.253 49.244 149.235 49.2395C149.112 49.2167 149.029 49.098 149.052 48.9703C149.112 48.6737 149.171 48.368 149.231 48.0714C149.258 47.9483 149.377 47.8707 149.5 47.8935C149.623 47.9209 149.701 48.0395 149.678 48.1627C149.619 48.4593 149.56 48.7558 149.5 49.0524C149.486 49.171 149.39 49.244 149.281 49.244ZM132.451 49.1893C132.346 49.1893 132.25 49.1163 132.227 49.0068C132.2 48.8836 132.282 48.7604 132.406 48.7376C132.698 48.6783 133 48.6144 133.297 48.5505C133.42 48.5231 133.543 48.6007 133.566 48.7239C133.594 48.8471 133.516 48.9703 133.393 48.9931C133.096 49.057 132.794 49.1208 132.497 49.1802C132.483 49.1847 132.465 49.1893 132.451 49.1893ZM76.6944 48.9885C76.6807 48.9885 76.6624 48.9885 76.6441 48.984C76.3471 48.9201 76.0455 48.8562 75.7485 48.7878C75.6251 48.7604 75.5474 48.6372 75.5749 48.514C75.6023 48.3908 75.7256 48.3133 75.849 48.3406C76.1415 48.4045 76.4431 48.473 76.7401 48.5368C76.8634 48.5642 76.9411 48.6828 76.9137 48.806C76.8954 48.9155 76.7995 48.9885 76.6944 48.9885ZM134.681 48.7057C134.576 48.7057 134.485 48.6326 134.457 48.5277C134.43 48.4045 134.508 48.2813 134.631 48.254C134.928 48.1855 135.225 48.1171 135.517 48.0486C135.641 48.0213 135.764 48.0943 135.792 48.2175C135.819 48.3406 135.746 48.4638 135.623 48.4912C135.33 48.5596 135.029 48.6281 134.732 48.6965C134.713 48.7057 134.7 48.7057 134.681 48.7057ZM74.4645 48.4912C74.4462 48.4912 74.4279 48.4912 74.4142 48.4866C74.1172 48.4182 73.8156 48.3452 73.5231 48.2768C73.3998 48.2494 73.3267 48.1262 73.3541 48.003C73.3815 47.8798 73.5049 47.8068 73.6283 47.8342C73.9207 47.9026 74.2177 47.9756 74.5147 48.0441C74.6381 48.0714 74.7158 48.1946 74.6838 48.3178C74.6655 48.4182 74.5696 48.4912 74.4645 48.4912ZM136.902 48.1855C136.797 48.1855 136.706 48.1171 136.678 48.0121C136.646 47.8889 136.724 47.7658 136.847 47.7384C137.14 47.6654 137.441 47.5924 137.734 47.5194C137.857 47.4874 137.98 47.565 138.012 47.6836C138.044 47.8068 137.967 47.93 137.848 47.9619C137.555 48.0349 137.254 48.1079 136.961 48.181C136.939 48.1855 136.92 48.1855 136.902 48.1855ZM72.2483 47.9528C72.23 47.9528 72.2117 47.9528 72.1934 47.9437C71.8964 47.8707 71.5994 47.7931 71.3069 47.7201C71.1836 47.6882 71.1105 47.565 71.1424 47.4418C71.1744 47.3186 71.2978 47.2456 71.4212 47.2776C71.7136 47.3506 72.0106 47.4281 72.3031 47.5011C72.4265 47.5331 72.4996 47.6562 72.4676 47.7794C72.4447 47.8844 72.3488 47.9528 72.2483 47.9528ZM139.118 47.6289C139.018 47.6289 138.926 47.5604 138.899 47.4601C138.867 47.3369 138.94 47.2137 139.063 47.1817C139.356 47.1042 139.653 47.0266 139.945 46.9491C140.069 46.9171 140.192 46.9901 140.224 47.1087C140.256 47.2319 140.183 47.3551 140.064 47.3871C139.772 47.4646 139.47 47.5467 139.182 47.6198C139.155 47.6243 139.137 47.6289 139.118 47.6289ZM70.0366 47.3779C70.0183 47.3779 69.9955 47.3734 69.9772 47.3688C69.6848 47.2912 69.3878 47.2091 69.0953 47.127C68.9719 47.0951 68.9034 46.9673 68.9354 46.8441C68.9674 46.7209 69.0953 46.6525 69.2187 46.6844C69.5111 46.7665 69.8082 46.8441 70.096 46.9262C70.2194 46.9582 70.2879 47.0859 70.256 47.2046C70.2331 47.3095 70.1371 47.3779 70.0366 47.3779ZM3.08898 47.1909C3.06156 47.1909 3.02957 47.1863 3.00216 47.1726C2.88335 47.127 2.82852 46.9901 2.87421 46.8761C2.98845 46.5932 3.11182 46.3103 3.2352 46.032C3.28547 45.9179 3.42255 45.8632 3.53679 45.9179C3.65103 45.9681 3.70586 46.105 3.65103 46.219C3.52765 46.4928 3.40884 46.7711 3.29917 47.0494C3.26719 47.1361 3.18037 47.1909 3.08898 47.1909ZM141.321 47.0312C141.22 47.0312 141.129 46.9673 141.101 46.8669C141.069 46.7437 141.138 46.6205 141.261 46.584C141.554 46.5019 141.846 46.4198 142.139 46.3331C142.262 46.2966 142.385 46.3696 142.422 46.4882C142.459 46.6114 142.385 46.7346 142.267 46.7711C141.974 46.8532 141.677 46.9399 141.385 47.0221C141.362 47.0266 141.339 47.0312 141.321 47.0312ZM149.751 47.0175C149.733 47.0175 149.719 47.0175 149.701 47.0129C149.578 46.9856 149.5 46.8624 149.528 46.7392C149.596 46.4426 149.665 46.1415 149.733 45.8495C149.761 45.7263 149.884 45.6533 150.007 45.6807C150.131 45.708 150.204 45.8312 150.176 45.9544C150.108 46.2464 150.039 46.543 149.971 46.8396C149.948 46.9445 149.857 47.0175 149.751 47.0175ZM67.8387 46.7665C67.8158 46.7665 67.7976 46.762 67.7747 46.7574C67.4823 46.6753 67.1853 46.5886 66.8974 46.5019C66.7786 46.4654 66.7055 46.3377 66.742 46.219C66.7786 46.1004 66.9065 46.0274 67.0253 46.0639C67.3132 46.1506 67.6102 46.2373 67.8981 46.3194C68.0215 46.3559 68.09 46.4791 68.0535 46.6023C68.0306 46.7027 67.9392 46.7665 67.8387 46.7665ZM143.514 46.3924C143.414 46.3924 143.327 46.3285 143.295 46.2282C143.258 46.1095 143.327 45.9818 143.45 45.9453C143.738 45.8586 144.035 45.7673 144.323 45.6807C144.442 45.6442 144.57 45.7126 144.606 45.8312C144.643 45.9498 144.574 46.0776 144.455 46.1141C144.168 46.2054 143.87 46.292 143.578 46.3787C143.555 46.3924 143.537 46.3924 143.514 46.3924ZM65.6499 46.1141C65.6271 46.1141 65.6042 46.1095 65.5814 46.105C65.2889 46.0137 64.9965 45.9225 64.7086 45.8358C64.5898 45.7993 64.5212 45.6715 64.5578 45.5483C64.5944 45.4297 64.7223 45.3613 64.8457 45.3978C65.1336 45.489 65.426 45.5803 65.7139 45.667C65.8327 45.7035 65.9012 45.8312 65.8647 45.9498C65.8373 46.0548 65.7504 46.1141 65.6499 46.1141ZM145.694 45.7217C145.598 45.7217 145.506 45.6578 145.474 45.562C145.438 45.4434 145.502 45.3156 145.621 45.2746C145.913 45.1833 146.201 45.0875 146.489 44.9963C146.608 44.9552 146.736 45.0236 146.777 45.1423C146.818 45.2609 146.749 45.3886 146.63 45.4297C146.343 45.521 146.05 45.6168 145.762 45.7126C145.739 45.7172 145.717 45.7217 145.694 45.7217ZM63.4748 45.4251C63.452 45.4251 63.4291 45.4206 63.4017 45.416C63.1138 45.3202 62.8214 45.2244 62.5335 45.1286C62.4147 45.0875 62.3507 44.9598 62.3873 44.8411C62.4284 44.7225 62.5564 44.6586 62.6752 44.6951C62.963 44.7909 63.2509 44.8868 63.5388 44.9826C63.6576 45.0236 63.7262 45.1514 63.685 45.27C63.6622 45.3658 63.5708 45.4251 63.4748 45.4251ZM4.03486 45.1149C3.99831 45.1149 3.96632 45.1058 3.92976 45.0921C3.81553 45.0373 3.76983 44.8959 3.82924 44.7864C3.96632 44.5126 4.11254 44.2389 4.25877 43.9742C4.31817 43.8647 4.45983 43.8237 4.56949 43.883C4.67916 43.9423 4.72029 44.0837 4.66088 44.1932C4.51466 44.4579 4.37301 44.7271 4.24049 44.9917C4.19936 45.0693 4.11711 45.1149 4.03486 45.1149ZM147.864 45.01C147.768 45.01 147.681 44.9506 147.649 44.8548C147.608 44.7362 147.672 44.6039 147.791 44.5674C148.079 44.4716 148.367 44.3712 148.655 44.2708C148.774 44.2298 148.906 44.2936 148.947 44.4123C148.988 44.5309 148.924 44.6632 148.806 44.7043C148.518 44.8046 148.23 44.905 147.942 45.0008C147.91 45.0054 147.887 45.01 147.864 45.01ZM150.291 44.8001C150.272 44.8001 150.254 44.7955 150.231 44.791C150.108 44.759 150.035 44.6358 150.067 44.5126C150.09 44.4168 150.117 44.321 150.144 44.2252C150.131 44.2298 150.112 44.2343 150.099 44.2434C149.98 44.2845 149.847 44.2252 149.806 44.1066C149.765 43.9879 149.825 43.8556 149.943 43.8146C150.058 43.7735 150.172 43.7324 150.291 43.6914C150.295 43.6731 150.3 43.6503 150.309 43.632C150.341 43.5089 150.469 43.4404 150.588 43.4724C150.633 43.486 150.67 43.5089 150.702 43.5408C150.734 43.5271 150.77 43.518 150.802 43.5043C150.921 43.4632 151.054 43.5225 151.095 43.6412C151.141 43.7598 151.077 43.8921 150.958 43.9332C150.862 43.9697 150.766 44.0016 150.67 44.0381C150.615 44.2343 150.565 44.4351 150.515 44.6313C150.483 44.7316 150.391 44.8001 150.291 44.8001ZM61.3135 44.6997C61.2906 44.6997 61.2632 44.6951 61.2403 44.686C60.9525 44.5856 60.6646 44.4853 60.3767 44.3849C60.2579 44.3438 60.1939 44.2115 60.2396 44.0929C60.2808 43.9742 60.4133 43.9104 60.5321 43.956C60.8154 44.0564 61.1078 44.1567 61.3911 44.2571C61.5099 44.2982 61.5739 44.4305 61.5328 44.5491C61.4962 44.6404 61.4049 44.6997 61.3135 44.6997ZM59.1612 43.9332C59.1338 43.9332 59.1064 43.9286 59.0835 43.9195C58.8002 43.8146 58.5124 43.7096 58.2245 43.6001C58.1057 43.5545 58.0463 43.4222 58.092 43.3081C58.1377 43.1895 58.2702 43.1302 58.3844 43.1758C58.6677 43.2807 58.9556 43.3902 59.2389 43.4906C59.3577 43.5362 59.4171 43.664 59.376 43.7826C59.3394 43.8784 59.2526 43.9332 59.1612 43.9332ZM152.16 43.4678C152.068 43.4678 151.981 43.413 151.945 43.3218C151.899 43.2032 151.958 43.0709 152.077 43.0298C152.361 42.9249 152.648 42.8153 152.927 42.7058C153.046 42.6602 153.179 42.7195 153.224 42.8382C153.27 42.9568 153.211 43.0891 153.092 43.1347C152.808 43.2442 152.521 43.3537 152.237 43.4632C152.214 43.4632 152.187 43.4678 152.16 43.4678ZM57.0227 43.1302C56.9953 43.1302 56.9679 43.1256 56.9405 43.1165C56.6571 43.007 56.3693 42.8929 56.0905 42.7834C55.9717 42.7378 55.9169 42.6055 55.9626 42.4868C56.0083 42.3682 56.1408 42.3135 56.2596 42.3591C56.5383 42.4686 56.8262 42.5827 57.1095 42.6922C57.2283 42.7378 57.2877 42.8701 57.242 42.9887C57.2009 43.0754 57.1141 43.1302 57.0227 43.1302ZM5.14525 43.1256C5.10412 43.1256 5.063 43.1165 5.02644 43.0937C4.91677 43.0298 4.88479 42.8883 4.95333 42.7788C5.11326 42.5188 5.28233 42.2587 5.44684 42.0032C5.51538 41.8983 5.65703 41.8709 5.76213 41.9393C5.86723 42.0078 5.89465 42.1492 5.8261 42.2542C5.6616 42.5051 5.4971 42.7606 5.33717 43.0161C5.29604 43.0891 5.22293 43.1256 5.14525 43.1256ZM154.284 42.642C154.193 42.642 154.106 42.5872 154.074 42.5005C154.028 42.3819 154.083 42.2496 154.202 42.204C154.485 42.0899 154.769 41.9758 155.047 41.8618C155.166 41.8161 155.299 41.8709 155.344 41.985C155.39 42.1036 155.335 42.2359 155.221 42.2815C154.942 42.3956 154.654 42.5097 154.371 42.6237C154.344 42.6374 154.316 42.642 154.284 42.642ZM150.894 42.6055C150.871 42.6055 150.853 42.6009 150.83 42.5963C150.706 42.5598 150.638 42.4321 150.674 42.3135C150.761 42.0215 150.848 41.7295 150.935 41.4374C150.971 41.3188 151.099 41.2504 151.218 41.2869C151.337 41.3234 151.406 41.4511 151.369 41.5698C151.282 41.8572 151.195 42.1492 151.109 42.4367C151.086 42.5416 150.994 42.6055 150.894 42.6055ZM54.9025 42.2907C54.875 42.2907 54.8431 42.2861 54.8156 42.2724C54.5323 42.1583 54.249 42.0397 53.9703 41.9256C53.856 41.8755 53.7966 41.7431 53.8469 41.6291C53.8972 41.515 54.0297 41.4557 54.1439 41.5059C54.4227 41.62 54.706 41.7386 54.9847 41.8526C55.1035 41.8983 55.1584 42.0351 55.1081 42.1492C55.0761 42.2359 54.9939 42.2907 54.9025 42.2907ZM156.4 41.7796C156.309 41.7796 156.226 41.7295 156.19 41.6382C156.14 41.5241 156.194 41.3873 156.313 41.3416C156.533 41.2504 156.756 41.1546 156.976 41.0633L157.154 40.9858C157.268 40.9356 157.405 40.9903 157.456 41.1044C157.506 41.2184 157.451 41.3553 157.337 41.4055L157.159 41.4831C156.939 41.5789 156.715 41.6701 156.496 41.766C156.459 41.7705 156.427 41.7796 156.4 41.7796ZM52.7959 41.4101C52.7639 41.4101 52.7365 41.4055 52.7045 41.3918C52.4258 41.2732 52.1425 41.15 51.8637 41.0268C51.7495 40.9766 51.6947 40.8397 51.7449 40.7257C51.7952 40.6116 51.9323 40.5569 52.0465 40.6071C52.3253 40.7302 52.604 40.8489 52.8827 40.9675C52.997 41.0177 53.0518 41.15 53.0016 41.2686C52.9696 41.3599 52.8827 41.4101 52.7959 41.4101ZM6.42471 41.2367C6.37901 41.2367 6.32875 41.223 6.28762 41.1911C6.18709 41.1181 6.16425 40.9721 6.24193 40.8717C6.42471 40.6253 6.61206 40.3789 6.80398 40.1417C6.88166 40.0413 7.02788 40.0276 7.12384 40.1052C7.22437 40.1827 7.23808 40.3287 7.1604 40.4246C6.97305 40.6572 6.79027 40.8991 6.60749 41.1409C6.56179 41.2048 6.49325 41.2367 6.42471 41.2367ZM158.493 40.8763C158.406 40.8763 158.324 40.8261 158.283 40.7394C158.232 40.6253 158.283 40.4884 158.397 40.4382C158.676 40.3151 158.954 40.1873 159.229 40.0641C159.343 40.0139 159.48 40.0641 159.53 40.1782C159.58 40.2922 159.53 40.4291 159.416 40.4793C159.142 40.6025 158.863 40.7302 158.58 40.8534C158.557 40.8671 158.525 40.8763 158.493 40.8763ZM50.7077 40.493C50.6757 40.493 50.6437 40.4884 50.6163 40.4747C50.3375 40.3516 50.0634 40.2238 49.7846 40.1006C49.6704 40.0504 49.6201 39.9135 49.6704 39.7995C49.7207 39.6854 49.8577 39.6352 49.972 39.6854C50.2507 39.8086 50.5295 39.9364 50.8036 40.0595C50.9179 40.1097 50.9681 40.2466 50.9179 40.3607C50.8767 40.4428 50.7945 40.493 50.7077 40.493ZM151.566 40.4337C151.543 40.4337 151.52 40.4291 151.497 40.4246C151.378 40.3835 151.31 40.2557 151.351 40.1371C151.442 39.8497 151.543 39.5577 151.639 39.2702C151.68 39.1516 151.808 39.0877 151.927 39.1288C152.045 39.1698 152.109 39.2976 152.068 39.4162C151.972 39.7037 151.876 39.9911 151.78 40.2785C151.753 40.3698 151.661 40.4337 151.566 40.4337ZM160.567 39.9272C160.481 39.9272 160.398 39.877 160.362 39.7949C160.307 39.6809 160.357 39.544 160.471 39.4892C160.75 39.3615 161.024 39.2292 161.294 39.0968C161.408 39.0421 161.545 39.0877 161.6 39.2018C161.655 39.3158 161.609 39.4527 161.495 39.5075C161.225 39.6398 160.947 39.7675 160.668 39.8999C160.636 39.9227 160.604 39.9272 160.567 39.9272ZM48.624 39.5531C48.592 39.5531 48.56 39.5485 48.528 39.5303L47.6964 39.1516C47.5821 39.1014 47.5319 38.9645 47.5821 38.8505C47.6324 38.7364 47.7695 38.6862 47.8837 38.7364L48.7154 39.1151C48.8296 39.1653 48.8799 39.3022 48.8296 39.4162C48.793 39.5029 48.7108 39.5531 48.624 39.5531ZM7.85953 39.4664C7.80469 39.4664 7.74986 39.4482 7.70873 39.4071C7.61278 39.325 7.60364 39.179 7.69046 39.0832C7.89608 38.855 8.10628 38.6269 8.31648 38.4079C8.4033 38.3166 8.54952 38.3121 8.64091 38.3988C8.7323 38.4855 8.73687 38.6315 8.65005 38.7227C8.44442 38.9371 8.2388 39.1607 8.03774 39.3888C7.98747 39.439 7.9235 39.4664 7.85953 39.4664ZM162.624 38.9326C162.541 38.9326 162.459 38.887 162.418 38.8048C162.363 38.6908 162.409 38.5539 162.519 38.4991C162.793 38.3623 163.062 38.2254 163.332 38.0885C163.446 38.0292 163.583 38.0748 163.638 38.1889C163.698 38.303 163.652 38.4398 163.538 38.4946C163.268 38.6315 162.994 38.7729 162.72 38.9098C162.692 38.928 162.66 38.9326 162.624 38.9326ZM46.5449 38.6086C46.5129 38.6086 46.4809 38.6041 46.4489 38.5904C46.1702 38.4626 45.896 38.3395 45.6172 38.2117C45.503 38.1615 45.4527 38.0246 45.503 37.9106C45.5533 37.7965 45.6904 37.7463 45.8046 37.7965C46.0833 37.9243 46.3621 38.0474 46.6362 38.1752C46.7505 38.2254 46.8007 38.3623 46.7505 38.4763C46.7139 38.5585 46.6317 38.6086 46.5449 38.6086ZM152.306 38.2801C152.278 38.2801 152.256 38.2756 152.228 38.2664C152.109 38.2254 152.045 38.0931 152.091 37.9744C152.196 37.687 152.301 37.3996 152.406 37.1167C152.452 36.9981 152.58 36.9387 152.699 36.9844C152.818 37.03 152.877 37.1577 152.831 37.2764C152.726 37.5592 152.621 37.8467 152.521 38.1296C152.484 38.2208 152.397 38.2801 152.306 38.2801ZM164.653 37.8878C164.57 37.8878 164.493 37.8421 164.451 37.7691C164.392 37.6596 164.433 37.5182 164.547 37.4589C164.817 37.3174 165.087 37.1714 165.347 37.0254C165.457 36.9661 165.598 37.0072 165.658 37.1167C165.717 37.2262 165.681 37.3676 165.566 37.4269C165.301 37.5729 165.032 37.7189 164.762 37.8649C164.726 37.8786 164.689 37.8878 164.653 37.8878ZM9.45428 37.833C9.39488 37.833 9.3309 37.8102 9.28521 37.76C9.19839 37.6687 9.20296 37.5227 9.29435 37.4361C9.51825 37.2262 9.7513 37.0209 9.97977 36.8201C10.0757 36.738 10.2174 36.7471 10.3042 36.8429C10.3865 36.9387 10.3773 37.0802 10.2814 37.1669C10.0529 37.3631 9.82898 37.5638 9.60964 37.7691C9.56852 37.8148 9.50912 37.833 9.45428 37.833ZM44.4612 37.6687C44.4292 37.6687 44.3972 37.6642 44.3698 37.6505C44.091 37.5273 43.8123 37.4041 43.5336 37.2809C43.4193 37.2307 43.3645 37.0939 43.4148 36.9798C43.465 36.8657 43.6021 36.811 43.7163 36.8612C43.9951 36.9844 44.2738 37.1076 44.5526 37.2307C44.6668 37.2809 44.7216 37.4178 44.6668 37.5319C44.6302 37.6186 44.548 37.6687 44.4612 37.6687ZM166.649 36.779C166.572 36.779 166.494 36.738 166.453 36.665C166.389 36.5555 166.426 36.414 166.535 36.3547C166.8 36.2042 167.065 36.049 167.321 35.8985C167.431 35.8346 167.568 35.8711 167.632 35.9806C167.696 36.0901 167.659 36.227 167.55 36.2909C167.289 36.446 167.024 36.6011 166.759 36.7517C166.727 36.7699 166.686 36.779 166.649 36.779ZM42.3683 36.7517C42.3364 36.7517 42.3089 36.7471 42.277 36.7334C41.9891 36.6102 41.7103 36.4916 41.4407 36.3775C41.3265 36.3274 41.2717 36.195 41.3174 36.0764C41.3676 35.9623 41.5001 35.9076 41.6189 35.9532C41.8885 36.0673 42.1719 36.1905 42.4597 36.3137C42.574 36.3639 42.6288 36.4962 42.5785 36.6148C42.542 36.7015 42.4597 36.7517 42.3683 36.7517ZM11.1998 36.3639C11.1313 36.3639 11.0627 36.3319 11.017 36.2726C10.9394 36.1722 10.9622 36.0308 11.0582 35.9532C11.3049 35.7662 11.5517 35.5836 11.803 35.4103C11.9081 35.3373 12.0498 35.3646 12.1229 35.465C12.196 35.57 12.1686 35.7114 12.068 35.7844C11.8213 35.9532 11.5791 36.1357 11.3369 36.3182C11.2958 36.3502 11.2455 36.3639 11.1998 36.3639ZM153.105 36.1494C153.078 36.1494 153.051 36.1448 153.023 36.1357C152.904 36.0901 152.85 35.9578 152.895 35.8392C153.005 35.5563 153.119 35.2734 153.233 34.9905C153.279 34.8719 153.412 34.8171 153.53 34.8628C153.649 34.9084 153.704 35.0453 153.658 35.1593C153.544 35.4422 153.43 35.7251 153.32 36.0034C153.284 36.0901 153.197 36.1494 153.105 36.1494ZM40.2664 35.8711C40.239 35.8711 40.207 35.8665 40.1796 35.8528C39.8962 35.7388 39.6084 35.6247 39.3342 35.5152C39.2154 35.4696 39.1606 35.3373 39.2063 35.2186C39.2519 35.1 39.3845 35.0453 39.5033 35.0909C39.7774 35.2004 40.0653 35.3145 40.3532 35.4331C40.472 35.4787 40.5268 35.6156 40.4766 35.7297C40.44 35.8163 40.3532 35.8711 40.2664 35.8711ZM168.61 35.611C168.532 35.611 168.459 35.5745 168.413 35.5015C168.345 35.3966 168.381 35.2551 168.486 35.1867C168.742 35.027 169.003 34.8628 169.259 34.7031C169.364 34.6346 169.505 34.6666 169.574 34.7715C169.642 34.8764 169.61 35.0179 169.505 35.0863C169.249 35.2506 168.989 35.4148 168.729 35.5745C168.692 35.6019 168.651 35.611 168.61 35.611ZM13.0825 35.0818C13.0048 35.0818 12.9317 35.0407 12.886 34.9723C12.822 34.8628 12.854 34.7259 12.9637 34.6574C13.2241 34.4978 13.4937 34.3426 13.7633 34.1966C13.873 34.1373 14.0146 34.1784 14.074 34.2879C14.1334 34.3974 14.0923 34.5388 13.9826 34.5981C13.7222 34.7396 13.4572 34.8947 13.2013 35.0498C13.1647 35.0681 13.1236 35.0818 13.0825 35.0818ZM38.1416 35.0361C38.1141 35.0361 38.0867 35.0316 38.0593 35.0224C37.7714 34.9129 37.4881 34.808 37.2048 34.7076C37.086 34.6666 37.0266 34.5343 37.0677 34.4156C37.1089 34.297 37.2414 34.2377 37.3602 34.2787C37.6389 34.3791 37.9314 34.4886 38.2192 34.5981C38.3381 34.6438 38.3974 34.7761 38.3518 34.8901C38.3198 34.9814 38.233 35.0361 38.1416 35.0361ZM170.529 34.3746C170.456 34.3746 170.383 34.3381 170.337 34.2742C170.268 34.1692 170.296 34.0278 170.401 33.9594C170.652 33.7906 170.908 33.6172 171.15 33.4484C171.255 33.3754 171.397 33.4027 171.47 33.5031C171.543 33.608 171.516 33.7495 171.415 33.8225C171.169 33.9959 170.913 34.1692 170.657 34.3381C170.616 34.3609 170.57 34.3746 170.529 34.3746ZM35.9939 34.2696C35.9711 34.2696 35.9436 34.2651 35.9208 34.2559C35.6329 34.1556 35.3405 34.0597 35.0572 33.9731C34.9383 33.9366 34.8698 33.8042 34.9109 33.6856C34.9475 33.567 35.08 33.4985 35.1988 33.5396C35.4821 33.6309 35.7746 33.7267 36.067 33.8271C36.1858 33.8681 36.2498 33.9959 36.2087 34.1145C36.1812 34.2057 36.0899 34.2696 35.9939 34.2696ZM153.969 34.0369C153.937 34.0369 153.91 34.0324 153.882 34.0187C153.768 33.9685 153.713 33.8362 153.759 33.7176C153.878 33.4392 154.001 33.1564 154.12 32.878C154.17 32.764 154.303 32.7092 154.421 32.7594C154.536 32.8096 154.591 32.9465 154.54 33.0605C154.421 33.3389 154.298 33.6172 154.179 33.8955C154.143 33.9867 154.056 34.0369 153.969 34.0369ZM15.093 34.0096C15.0062 34.0096 14.924 33.9594 14.8874 33.8772C14.8326 33.7632 14.8828 33.6263 14.9971 33.5761C15.2758 33.4484 15.5591 33.3252 15.8424 33.2065C15.9612 33.1609 16.0938 33.2157 16.1395 33.3297C16.1851 33.4484 16.1303 33.5807 16.0161 33.6263C15.7419 33.7404 15.4632 33.859 15.189 33.9867C15.1616 34.0004 15.125 34.0096 15.093 34.0096ZM33.8234 33.5807C33.8005 33.5807 33.7823 33.5761 33.7594 33.5715C33.467 33.4849 33.1745 33.4027 32.8866 33.3252C32.7633 33.2932 32.6947 33.1655 32.7267 33.0469C32.7587 32.9237 32.8866 32.8552 33.0054 32.8872C33.2933 32.9647 33.5903 33.0514 33.8874 33.1381C34.0062 33.1746 34.0793 33.3024 34.0427 33.421C34.0107 33.5168 33.9193 33.5807 33.8234 33.5807ZM17.2133 33.17C17.1173 33.17 17.0305 33.1107 16.9985 33.0149C16.9574 32.8963 17.0214 32.764 17.1447 32.7275C17.4372 32.6317 17.7342 32.5404 18.0267 32.4537C18.15 32.4172 18.2734 32.4902 18.31 32.6088C18.3465 32.732 18.2734 32.8552 18.1546 32.8917C17.8667 32.9739 17.5743 33.0651 17.291 33.1564C17.2635 33.1655 17.2407 33.17 17.2133 33.17ZM172.398 33.0651C172.329 33.0651 172.256 33.0332 172.215 32.9739C172.142 32.8735 172.16 32.7275 172.265 32.6545C172.512 32.4765 172.754 32.294 172.996 32.1115C173.097 32.034 173.239 32.0568 173.316 32.1571C173.394 32.2575 173.371 32.399 173.271 32.4765C173.028 32.659 172.782 32.8415 172.535 33.024C172.489 33.0514 172.444 33.0651 172.398 33.0651ZM31.6209 32.9921C31.6026 32.9921 31.5843 32.9921 31.5661 32.9875C31.269 32.9191 30.972 32.8507 30.6841 32.7868C30.5608 32.7594 30.4831 32.6408 30.5105 32.5176C30.5379 32.3944 30.6567 32.3168 30.7801 32.3442C31.0726 32.4081 31.3741 32.4765 31.6757 32.545C31.7991 32.5723 31.8722 32.6955 31.8448 32.8187C31.8174 32.9237 31.726 32.9921 31.6209 32.9921ZM19.4158 32.5678C19.3107 32.5678 19.2147 32.4948 19.1919 32.3898C19.1645 32.2666 19.2421 32.1435 19.3655 32.1206C19.6625 32.0568 19.9687 31.9975 20.2703 31.9427C20.3936 31.9199 20.5125 32.0066 20.5353 32.1298C20.5581 32.253 20.4713 32.3716 20.348 32.3944C20.0509 32.4446 19.7539 32.5039 19.4615 32.5678C19.4478 32.5678 19.4341 32.5678 19.4158 32.5678ZM29.391 32.5267C29.3773 32.5267 29.3636 32.5267 29.3499 32.5222C29.0528 32.4674 28.7513 32.4218 28.4588 32.3761C28.3354 32.3579 28.2486 32.2438 28.2669 32.1161C28.2852 31.9929 28.404 31.9062 28.5273 31.9245C28.8244 31.9701 29.1305 32.0203 29.4321 32.0705C29.5555 32.0933 29.6377 32.2119 29.6195 32.3351C29.5966 32.4492 29.5006 32.5267 29.391 32.5267ZM27.1336 32.2073C27.1245 32.2073 27.1199 32.2073 27.1108 32.2073C26.8092 32.1754 26.5076 32.148 26.2106 32.1298C26.0827 32.1206 25.9913 32.0111 26.0004 31.888C26.0096 31.7602 26.1192 31.6689 26.2426 31.6781C26.5442 31.7009 26.8503 31.7283 27.1565 31.7602C27.2799 31.7739 27.3713 31.8834 27.3621 32.0111C27.3484 32.1206 27.2479 32.2073 27.1336 32.2073ZM21.6685 32.2028C21.5543 32.2028 21.4538 32.1161 21.4401 31.9975C21.4264 31.8743 21.5177 31.7602 21.6411 31.7465C21.9427 31.7146 22.2534 31.6872 22.5596 31.6644C22.683 31.6553 22.7926 31.7511 22.8018 31.8743C22.8109 32.002 22.715 32.107 22.5916 32.1161C22.29 32.1389 21.9884 32.1663 21.6914 32.1982C21.6868 32.2028 21.6777 32.2028 21.6685 32.2028ZM24.858 32.0659H24.8535C24.5519 32.0613 24.2503 32.0568 23.9487 32.0613C23.8208 32.0659 23.7202 31.961 23.7157 31.8378C23.7157 31.71 23.8162 31.6096 23.9396 31.6051C24.2457 31.6005 24.5519 31.6005 24.858 31.6096C24.986 31.6142 25.0865 31.7146 25.0819 31.8423C25.0819 31.9655 24.9814 32.0659 24.858 32.0659ZM154.888 31.9473C154.856 31.9473 154.824 31.9427 154.792 31.929C154.677 31.8788 154.627 31.742 154.677 31.6279C154.801 31.3541 154.933 31.0758 155.061 30.7975C155.116 30.6834 155.249 30.6332 155.363 30.688C155.477 30.7427 155.527 30.8751 155.472 30.9891C155.344 31.2629 155.217 31.5412 155.089 31.815C155.057 31.9016 154.974 31.9473 154.888 31.9473ZM174.207 31.6781C174.139 31.6781 174.075 31.6507 174.029 31.5914C173.951 31.491 173.965 31.3496 174.066 31.272C174.303 31.0804 174.541 30.8887 174.769 30.6971C174.865 30.615 175.012 30.6287 175.089 30.7245C175.172 30.8203 175.158 30.9663 175.062 31.0439C174.829 31.2355 174.591 31.4317 174.354 31.6233C174.308 31.6598 174.258 31.6781 174.207 31.6781ZM175.957 30.2089C175.893 30.2089 175.83 30.1815 175.788 30.1314C175.706 30.0355 175.715 29.8941 175.807 29.8074C176.035 29.6067 176.259 29.4013 176.483 29.2006C176.574 29.1139 176.721 29.123 176.807 29.2143C176.894 29.3055 176.885 29.4515 176.794 29.5382C176.57 29.7435 176.341 29.9489 176.113 30.1542C176.063 30.1907 176.008 30.2089 175.957 30.2089ZM155.856 29.885C155.824 29.885 155.788 29.8759 155.756 29.8622C155.642 29.8074 155.596 29.6705 155.651 29.5565C155.783 29.2827 155.92 29.0044 156.053 28.7352C156.108 28.6211 156.245 28.5755 156.359 28.6303C156.473 28.685 156.519 28.8219 156.464 28.936C156.332 29.2052 156.194 29.4789 156.062 29.7527C156.025 29.8393 155.943 29.885 155.856 29.885ZM177.625 28.6576C177.566 28.6576 177.507 28.6348 177.461 28.5892C177.374 28.4979 177.374 28.3565 177.465 28.2653C177.68 28.0554 177.9 27.8364 178.105 27.6219C178.192 27.5307 178.338 27.5307 178.43 27.6174C178.521 27.7041 178.521 27.8501 178.434 27.9413C178.224 28.1558 178.005 28.3748 177.785 28.5892C177.744 28.6348 177.685 28.6576 177.625 28.6576ZM156.88 27.8409C156.843 27.8409 156.811 27.8318 156.775 27.8136C156.661 27.7542 156.619 27.6174 156.674 27.5079C156.811 27.2387 156.953 26.9649 157.095 26.6957C157.154 26.5862 157.291 26.5406 157.401 26.5999C157.51 26.6592 157.556 26.7961 157.497 26.9056C157.355 27.1748 157.213 27.4486 157.076 27.7132C157.04 27.7953 156.962 27.8409 156.88 27.8409ZM179.211 27.0197C179.156 27.0197 179.101 27.0014 179.056 26.9604C178.964 26.8737 178.955 26.7322 179.042 26.6364C179.248 26.4128 179.449 26.1847 179.645 25.9612C179.727 25.8653 179.874 25.8562 179.969 25.9383C180.065 26.0205 180.075 26.1665 179.992 26.2623C179.791 26.4904 179.586 26.7185 179.38 26.9467C179.334 26.9923 179.275 27.0197 179.211 27.0197ZM157.945 25.8197C157.908 25.8197 157.871 25.8106 157.835 25.7923C157.725 25.733 157.684 25.5961 157.743 25.4821C157.89 25.2175 158.036 24.9437 158.182 24.6791C158.242 24.5696 158.383 24.5285 158.493 24.5878C158.603 24.6471 158.644 24.7886 158.584 24.8981C158.438 25.1627 158.292 25.4319 158.146 25.7011C158.104 25.7786 158.022 25.8197 157.945 25.8197ZM180.705 25.295C180.655 25.295 180.605 25.2768 180.559 25.2448C180.463 25.1673 180.445 25.0213 180.527 24.9254C180.719 24.6928 180.906 24.4509 181.094 24.2182C181.171 24.1179 181.313 24.0996 181.413 24.1772C181.514 24.2547 181.532 24.3962 181.455 24.4966C181.267 24.7338 181.075 24.9756 180.883 25.2129C180.838 25.2676 180.769 25.295 180.705 25.295ZM159.046 23.8213C159.009 23.8213 158.968 23.8122 158.932 23.7939C158.822 23.73 158.781 23.5932 158.845 23.4837C158.996 23.219 159.146 22.9498 159.297 22.6898C159.361 22.5803 159.498 22.5438 159.608 22.6031C159.717 22.667 159.754 22.8038 159.695 22.9133C159.544 23.1734 159.393 23.438 159.242 23.7027C159.206 23.7802 159.128 23.8213 159.046 23.8213ZM182.09 23.4837C182.044 23.4837 181.998 23.47 181.957 23.4426C181.852 23.3696 181.829 23.2282 181.902 23.1232C182.081 22.8723 182.254 22.6213 182.414 22.3795C182.483 22.2746 182.624 22.2472 182.729 22.3156C182.835 22.3841 182.862 22.5255 182.793 22.6305C182.629 22.8814 182.455 23.1323 182.273 23.3879C182.231 23.4517 182.163 23.4837 182.09 23.4837ZM160.184 21.8457C160.142 21.8457 160.106 21.8366 160.069 21.8138C159.96 21.7499 159.923 21.6084 159.987 21.5035C160.142 21.2434 160.298 20.9788 160.453 20.7187C160.517 20.6092 160.659 20.5727 160.768 20.6412C160.878 20.7051 160.915 20.8465 160.846 20.956C160.691 21.2161 160.535 21.4807 160.385 21.7408C160.339 21.8046 160.266 21.8457 160.184 21.8457ZM183.328 21.5719C183.287 21.5719 183.25 21.5628 183.214 21.54C183.104 21.4761 183.068 21.3393 183.132 21.2297C183.287 20.9651 183.433 20.7005 183.566 20.4404C183.625 20.3309 183.762 20.2853 183.872 20.3446C183.982 20.4039 184.027 20.5408 183.968 20.6503C183.831 20.9149 183.68 21.1887 183.52 21.4579C183.483 21.5309 183.406 21.5719 183.328 21.5719ZM161.353 19.8883C161.312 19.8883 161.271 19.8792 161.235 19.8564C161.125 19.7925 161.093 19.6511 161.157 19.5416C161.312 19.2815 161.472 19.0215 161.632 18.7614C161.696 18.6519 161.838 18.62 161.947 18.6884C162.057 18.7523 162.089 18.8937 162.021 19.0032C161.861 19.2633 161.701 19.5233 161.545 19.7788C161.509 19.8473 161.431 19.8883 161.353 19.8883ZM184.356 19.537C184.324 19.537 184.297 19.5325 184.265 19.5188C184.151 19.4686 184.096 19.3363 184.146 19.2176C184.265 18.9393 184.374 18.6565 184.475 18.3827C184.516 18.2641 184.649 18.2002 184.767 18.2458C184.886 18.2869 184.95 18.4192 184.905 18.5378C184.804 18.8207 184.69 19.1127 184.566 19.4002C184.53 19.4868 184.443 19.537 184.356 19.537ZM162.551 17.9447C162.509 17.9447 162.468 17.9356 162.432 17.9082C162.327 17.8397 162.29 17.7029 162.359 17.5934C162.427 17.4839 162.496 17.3789 162.564 17.2694C162.656 17.1234 162.756 16.9729 162.857 16.8177C162.925 16.7128 163.067 16.6854 163.172 16.7539C163.277 16.8223 163.305 16.9637 163.236 17.0687C163.135 17.2192 163.04 17.3652 162.953 17.5067C162.884 17.6162 162.816 17.7211 162.747 17.8306C162.701 17.9082 162.628 17.9447 162.551 17.9447ZM185.083 17.3789C185.064 17.3789 185.046 17.3789 185.028 17.3744C184.905 17.3424 184.831 17.2192 184.859 17.096C184.932 16.804 184.991 16.512 185.042 16.22C185.064 16.0968 185.179 16.0102 185.307 16.033C185.43 16.0558 185.517 16.1698 185.494 16.2976C185.444 16.5987 185.38 16.9044 185.302 17.2055C185.279 17.3105 185.188 17.3789 185.083 17.3789ZM163.844 16.0695C163.793 16.0695 163.748 16.0558 163.707 16.0238C163.606 15.9463 163.588 15.8048 163.666 15.7045C163.844 15.4718 164.036 15.2254 164.237 14.9836C164.314 14.8878 164.461 14.8695 164.557 14.9516C164.653 15.0292 164.671 15.1752 164.589 15.271C164.392 15.5128 164.205 15.7501 164.027 15.9828C163.981 16.0375 163.912 16.0695 163.844 16.0695ZM185.416 15.1296C185.412 15.1296 185.412 15.1296 185.407 15.1296C185.279 15.125 185.183 15.0201 185.188 14.8923C185.192 14.76 185.197 14.6277 185.197 14.4954C185.197 14.3311 185.192 14.1623 185.183 13.998C185.179 13.8703 185.275 13.7654 185.398 13.7608C185.526 13.7562 185.631 13.852 185.636 13.9752C185.645 14.1486 185.649 14.322 185.649 14.4954C185.649 14.6322 185.645 14.7737 185.64 14.9106C185.64 15.0338 185.54 15.1296 185.416 15.1296ZM165.297 14.3083C165.242 14.3083 165.192 14.2901 165.146 14.2536C165.05 14.1714 165.041 14.0254 165.123 13.9296C165.32 13.706 165.53 13.4734 165.736 13.2452C165.822 13.154 165.964 13.1448 166.06 13.2315C166.151 13.3182 166.16 13.4597 166.074 13.5555C165.868 13.779 165.662 14.0072 165.466 14.2307C165.42 14.2809 165.356 14.3083 165.297 14.3083ZM185.252 12.8574C185.142 12.8574 185.046 12.7798 185.028 12.6703C184.973 12.3783 184.905 12.0863 184.822 11.8034C184.786 11.6803 184.859 11.5571 184.978 11.5206C185.101 11.4841 185.224 11.5571 185.261 11.6757C185.348 11.9723 185.416 12.278 185.476 12.5836C185.499 12.7068 185.416 12.8255 185.293 12.8483C185.279 12.8574 185.266 12.8574 185.252 12.8574ZM166.846 12.6338C166.786 12.6338 166.732 12.611 166.686 12.57C166.595 12.4833 166.595 12.3373 166.681 12.246C166.896 12.027 167.116 11.808 167.33 11.5981C167.422 11.5114 167.563 11.5114 167.655 11.6027C167.742 11.6939 167.742 11.8354 167.65 11.9266C167.435 12.1365 167.221 12.3555 167.01 12.57C166.965 12.611 166.905 12.6338 166.846 12.6338ZM168.486 11.0415C168.427 11.0415 168.363 11.0187 168.317 10.9685C168.23 10.8772 168.24 10.7312 168.331 10.6445C168.559 10.4347 168.788 10.2294 169.012 10.0286C169.108 9.94647 169.249 9.9556 169.336 10.0468C169.419 10.1427 169.409 10.2841 169.318 10.3708C169.094 10.567 168.87 10.7723 168.642 10.9776C168.596 11.0232 168.541 11.0415 168.486 11.0415ZM184.566 10.6902C184.48 10.6902 184.397 10.64 184.361 10.5579C184.237 10.2887 184.096 10.024 183.945 9.77309C183.881 9.66359 183.913 9.52672 184.023 9.45828C184.132 9.3944 184.269 9.42634 184.338 9.53584C184.498 9.80047 184.644 10.0788 184.777 10.3662C184.831 10.4803 184.781 10.6172 184.662 10.6674C184.63 10.6856 184.598 10.6902 184.566 10.6902ZM170.204 9.54497C170.136 9.54497 170.072 9.51759 170.026 9.46284C169.949 9.36702 169.962 9.22102 170.058 9.14346C170.305 8.9427 170.547 8.75108 170.78 8.57313C170.881 8.49557 171.022 8.51382 171.1 8.6142C171.178 8.71457 171.16 8.85601 171.059 8.93358C170.831 9.10696 170.588 9.29859 170.346 9.49478C170.31 9.52672 170.259 9.54497 170.204 9.54497ZM183.337 8.77845C183.273 8.77845 183.209 8.75108 183.164 8.70089C182.967 8.47732 182.757 8.26744 182.538 8.08038C182.442 7.99825 182.432 7.85225 182.515 7.75643C182.597 7.66062 182.743 7.65149 182.839 7.73362C183.072 7.93893 183.296 8.1625 183.506 8.39976C183.589 8.49557 183.579 8.63701 183.483 8.7237C183.447 8.7602 183.392 8.77845 183.337 8.77845ZM172.041 8.18531C171.968 8.18531 171.895 8.14881 171.85 8.08038C171.781 7.97544 171.813 7.834 171.918 7.76556C172.174 7.59674 172.448 7.43705 172.718 7.29105C172.827 7.23173 172.969 7.2728 173.028 7.3823C173.088 7.4918 173.047 7.63324 172.937 7.69256C172.672 7.834 172.416 7.98912 172.169 8.14881C172.124 8.17619 172.083 8.18531 172.041 8.18531ZM181.578 7.3458C181.541 7.3458 181.5 7.33667 181.464 7.31842C181.208 7.17698 180.943 7.04467 180.669 6.93517C180.55 6.88954 180.495 6.75722 180.541 6.6386C180.586 6.51997 180.719 6.46522 180.838 6.51085C181.13 6.62947 181.418 6.76635 181.688 6.91692C181.797 6.98079 181.838 7.11767 181.774 7.22717C181.733 7.30473 181.656 7.3458 181.578 7.3458ZM174.066 7.14961C173.974 7.14961 173.887 7.09486 173.851 7.0036C173.805 6.88498 173.865 6.75266 173.979 6.70704C174.267 6.59297 174.564 6.49259 174.861 6.40134C174.98 6.36484 175.108 6.43328 175.144 6.55647C175.181 6.6751 175.112 6.80285 174.989 6.83935C174.705 6.92604 174.422 7.02185 174.143 7.13136C174.125 7.14048 174.098 7.14961 174.066 7.14961ZM179.444 6.5656C179.43 6.5656 179.417 6.5656 179.398 6.56103C179.115 6.50628 178.818 6.46522 178.521 6.43784C178.393 6.42872 178.302 6.31922 178.311 6.19146C178.32 6.06371 178.43 5.97246 178.558 5.98159C178.873 6.00896 179.184 6.05002 179.485 6.10934C179.608 6.13215 179.691 6.25534 179.663 6.37853C179.645 6.48803 179.549 6.5656 179.444 6.5656ZM176.264 6.54278C176.154 6.54278 176.058 6.46522 176.04 6.35115C176.021 6.22796 176.104 6.10934 176.227 6.09109C176.538 6.0409 176.849 6.0044 177.155 5.98159C177.278 5.97246 177.388 6.06827 177.397 6.19146C177.406 6.31922 177.31 6.42416 177.187 6.43328C176.894 6.45609 176.597 6.48803 176.3 6.53822C176.286 6.53822 176.277 6.54278 176.264 6.54278Z" fill="#1890FF"/>
<path d="M142.413 80.9814C141.471 80.9814 140.708 80.2195 140.708 79.2796C140.708 78.3397 141.471 77.5778 142.413 77.5778C143.354 77.5778 144.117 78.3397 144.117 79.2796C144.117 80.2195 143.354 80.9814 142.413 80.9814ZM142.413 78.2758C141.86 78.2758 141.407 78.7275 141.407 79.2796C141.407 79.8316 141.86 80.2833 142.413 80.2833C142.966 80.2833 143.418 79.8316 143.418 79.2796C143.418 78.7275 142.966 78.2758 142.413 78.2758Z" fill="#FFC057"/>
<path d="M42.0073 27.3209C41.066 27.3209 40.3029 26.559 40.3029 25.6191C40.3029 24.6792 41.066 23.9172 42.0073 23.9172C42.9486 23.9172 43.7117 24.6792 43.7117 25.6191C43.7117 26.559 42.9486 27.3209 42.0073 27.3209ZM42.0073 24.6153C41.4544 24.6153 41.002 25.067 41.002 25.6191C41.002 26.1712 41.4544 26.6229 42.0073 26.6229C42.5602 26.6229 43.0126 26.1712 43.0126 25.6191C43.0126 25.067 42.5648 24.6153 42.0073 24.6153Z" fill="#FFC057"/>
<path d="M22.596 100.277H21.6958V99.0083C21.6958 98.8669 21.5816 98.7528 21.4399 98.7528C21.2983 98.7528 21.184 98.8669 21.184 99.0083V100.272H20.2838C20.1422 100.272 20.028 100.386 20.028 100.528C20.028 100.669 20.1422 100.783 20.2838 100.783H21.184V102.047C21.184 102.188 21.2983 102.303 21.4399 102.303C21.5816 102.303 21.6958 102.188 21.6958 102.047V100.783H22.596C22.7377 100.783 22.8519 100.669 22.8519 100.528C22.8519 100.391 22.7377 100.277 22.596 100.277Z" fill="#1890FF"/>
<path d="M156.797 13.9342H155.449V12.0362C155.449 11.8263 155.28 11.653 155.065 11.653C154.855 11.653 154.682 11.8218 154.682 12.0362V13.9342H153.334C153.123 13.9342 152.95 14.1031 152.95 14.3175C152.95 14.5274 153.119 14.7008 153.334 14.7008H154.682V16.5988C154.682 16.8087 154.851 16.9821 155.065 16.9821C155.276 16.9821 155.449 16.8132 155.449 16.5988V14.7008H156.797C157.007 14.7008 157.181 14.5319 157.181 14.3175C157.181 14.1031 157.007 13.9342 156.797 13.9342Z" fill="#1890FF"/>
<path d="M53.4814 9.69105L49.3551 9.06142C49.0398 9.01123 48.8251 8.71922 48.8753 8.40897C48.9256 8.09415 49.2181 7.8797 49.5288 7.92989L53.655 8.55953C53.9703 8.60972 54.1851 8.90172 54.1348 9.21198C54.0846 9.52224 53.7921 9.73668 53.4814 9.69105Z" fill="#1890FF"/>
<path d="M59.5176 5.26078C59.2023 5.21059 58.9875 4.91858 59.0378 4.60833L59.6684 0.48831C59.7187 0.173492 60.0111 -0.0409498 60.3219 0.00923864C60.6372 0.0594271 60.8519 0.351433 60.8017 0.661689L60.1711 4.7817C60.1254 5.09196 59.8329 5.31096 59.5176 5.26078Z" fill="#1890FF"/>
<path d="M55.5103 6.13226C55.3641 6.10945 55.227 6.03188 55.1356 5.90413L52.7321 2.63732C52.5447 2.38181 52.5995 2.02137 52.8554 1.8343C53.1113 1.64724 53.4723 1.70199 53.6597 1.95749L56.0586 5.21974C56.246 5.47525 56.1911 5.83569 55.9353 6.02276C55.8119 6.11857 55.6565 6.15507 55.5103 6.13226Z" fill="#1890FF"/>
<path d="M152.141 33.5625L145.428 31.523L147.142 25.8974C147.512 24.6837 146.827 23.4016 145.611 23.0321L89.5619 5.98624C88.351 5.61667 87.0669 6.30106 86.6968 7.51014L62.707 86.1783C62.3368 87.3874 63.0223 88.6694 64.2332 89.039L120.287 106.08C121.503 106.45 122.787 105.765 123.157 104.552L135.609 63.7258L142.321 65.7653C143.93 66.2534 145.63 65.3501 146.118 63.744L154.165 37.354C154.654 35.748 153.745 34.0507 152.141 33.5625Z" fill="#FFC057"/>
<path d="M107.611 94.8152L52.0874 90.1157C50.9313 90.0199 50.0723 89.0025 50.1728 87.8481L56.7666 10.1702C56.8717 8.91544 57.9775 7.98467 59.2341 8.08961L114.575 12.7708C115.731 12.8666 116.59 13.8841 116.49 15.0384L109.882 92.8989C109.786 94.0532 108.767 94.911 107.611 94.8152Z" fill="#F7F7F7"/>
<path d="M118.678 103.443L65.3707 87.2368C64.2603 86.8992 63.6343 85.7266 63.9725 84.6179L86.7148 10.0424C87.0804 8.83786 88.3599 8.15804 89.5662 8.52304L142.7 24.6792C143.811 25.0168 144.437 26.1894 144.099 27.2981L121.301 102.047C120.963 103.156 119.789 103.781 118.678 103.443Z" fill="white"/>
<path d="M113.711 95.5543L105.911 93.1818C104.961 92.8944 104.422 91.8815 104.709 90.9325L107.086 83.1442C107.373 82.1951 108.388 81.6568 109.338 81.9442L117.138 84.3167C118.089 84.6042 118.628 85.6171 118.34 86.5661L115.964 94.3544C115.676 95.308 114.666 95.8464 113.711 95.5543ZM109.041 82.9343C108.635 82.8111 108.201 83.0392 108.077 83.4499L105.701 91.2382C105.578 91.6442 105.806 92.0777 106.217 92.2009L114.017 94.5734C114.424 94.6966 114.858 94.4685 114.982 94.0578L117.358 86.2695C117.481 85.8635 117.253 85.43 116.841 85.3068L109.041 82.9343Z" fill="#DDDDDD"/>
<path d="M109.32 91.7355C109.133 91.6762 108.964 91.5484 108.863 91.3614L106.747 87.3965C106.546 87.0178 106.688 86.5524 107.067 86.3517C107.446 86.1509 107.913 86.2924 108.114 86.671L109.868 89.9561L120.099 84.5221C120.479 84.3213 120.945 84.4628 121.146 84.8415C121.347 85.2202 121.205 85.6855 120.826 85.8863L109.909 91.6807C109.722 91.7811 109.512 91.7948 109.32 91.7355Z" fill="#1890FF"/>
<path d="M118.829 78.7823L111.029 76.4098C110.079 76.1223 109.539 75.1094 109.827 74.1604L112.203 66.3721C112.491 65.423 113.506 64.8847 114.456 65.1721L122.256 67.5447C123.207 67.8321 123.746 68.845 123.458 69.794L121.082 77.5823C120.79 78.5359 119.78 79.0743 118.829 78.7823ZM114.155 66.1622C113.748 66.039 113.314 66.2671 113.19 66.6778L110.814 74.4661C110.691 74.8722 110.919 75.3056 111.331 75.4288L119.131 77.8013C119.537 77.9245 119.972 77.6964 120.095 77.2858L122.471 69.4974C122.594 69.0914 122.366 68.6579 121.955 68.5347L114.155 66.1622Z" fill="#DDDDDD"/>
<path d="M114.438 74.9633C114.251 74.904 114.081 74.7763 113.981 74.5892L111.865 70.6243C111.664 70.2456 111.806 69.7802 112.185 69.5795C112.564 69.3787 113.03 69.5202 113.232 69.8989L114.986 73.1839L125.217 67.7499C125.597 67.5491 126.063 67.6906 126.264 68.0693C126.465 68.4479 126.323 68.9133 125.944 69.1141L115.027 74.9086C114.835 75.0044 114.625 75.0181 114.438 74.9633Z" fill="#1890FF"/>
<path d="M123.943 62.0102L116.142 59.6376C115.192 59.3502 114.653 58.3373 114.941 57.3883L117.317 49.6C117.605 48.651 118.619 48.1126 119.57 48.4L127.37 50.7726C128.32 51.06 128.859 52.0729 128.571 53.0219L126.195 60.8102C125.907 61.7592 124.893 62.2976 123.943 62.0102ZM119.273 49.3901C118.866 49.2669 118.432 49.495 118.308 49.9057L115.932 57.694C115.809 58.1 116.037 58.5335 116.449 58.6567L124.249 61.0292C124.655 61.1524 125.089 60.9243 125.213 60.5136L127.589 52.7253C127.712 52.3193 127.484 51.8858 127.073 51.7626L119.273 49.3901Z" fill="#DDDDDD"/>
<path d="M119.551 58.1868C119.364 58.1274 119.195 57.9997 119.094 57.8126L116.979 53.8477C116.778 53.469 116.919 53.0036 117.298 52.8029C117.678 52.6021 118.144 52.7436 118.345 53.1223L120.1 56.4073L130.331 50.9733C130.71 50.7725 131.176 50.9139 131.377 51.2926C131.578 51.6713 131.437 52.1367 131.057 52.3375L120.141 58.132C119.953 58.2324 119.743 58.2461 119.551 58.1868Z" fill="#1890FF"/>
<path d="M129.056 45.2336L121.256 42.861C120.305 42.5736 119.766 41.5607 120.054 40.6117L122.43 32.8234C122.718 31.8743 123.732 31.336 124.683 31.6234L132.483 33.9959C133.433 34.2834 133.973 35.2963 133.685 36.2453L131.309 44.0336C131.021 44.9872 130.011 45.5256 129.056 45.2336ZM124.386 32.6135C123.979 32.4903 123.545 32.7184 123.422 33.1291L121.045 40.9174C120.922 41.3235 121.151 41.7569 121.562 41.8801L129.362 44.2526C129.769 44.3758 130.203 44.1477 130.326 43.7371L132.702 35.9487C132.826 35.5427 132.597 35.1092 132.186 34.986L124.386 32.6135Z" fill="#DDDDDD"/>
<path d="M115.658 33.1884L89.8218 25.3317C89.4014 25.2039 89.1592 24.7568 89.2918 24.337C89.4197 23.9173 89.8675 23.6754 90.2879 23.8077L116.124 31.6645C116.544 31.7923 116.786 32.2394 116.654 32.6592C116.526 33.0789 116.078 33.3162 115.658 33.1884Z" fill="#DDDDDD"/>
<path d="M114.168 38.0795L88.3323 30.2228C87.9119 30.095 87.6697 29.6479 87.8022 29.2281C87.9302 28.8084 88.378 28.5665 88.7984 28.6989L114.634 36.5556C115.055 36.6834 115.297 37.1305 115.164 37.5503C115.036 37.97 114.589 38.2073 114.168 38.0795Z" fill="#DDDDDD"/>
<path d="M110.545 49.9514L84.7088 42.0946C84.2884 41.9668 84.0462 41.5197 84.1787 41.0999C84.3067 40.6802 84.7545 40.4384 85.1749 40.5707L111.011 48.4275C111.431 48.5552 111.673 49.0023 111.541 49.4221C111.417 49.8419 110.97 50.0791 110.545 49.9514Z" fill="#DDDDDD"/>
<path d="M109.055 54.8378L83.2191 46.9811C82.7987 46.8533 82.5565 46.4062 82.689 45.9864C82.817 45.5667 83.2648 45.3248 83.6852 45.4572L109.521 53.3139C109.941 53.4417 110.184 53.8888 110.051 54.3086C109.923 54.7283 109.48 54.9656 109.055 54.8378Z" fill="#DDDDDD"/>
<path d="M105.436 66.7098L79.6003 58.8575C79.1799 58.7298 78.9377 58.2826 79.0703 57.8629C79.1982 57.4431 79.646 57.2013 80.0664 57.3336L105.902 65.1904C106.323 65.3182 106.565 65.7653 106.432 66.1851C106.305 66.6003 105.857 66.8375 105.436 66.7098Z" fill="#DDDDDD"/>
<path d="M103.947 71.6008L78.1106 63.744C77.6902 63.6162 77.448 63.1691 77.5805 62.7494C77.7085 62.3296 78.1563 62.0878 78.5767 62.2201L104.413 70.0769C104.833 70.2046 105.075 70.6517 104.943 71.0715C104.815 71.4912 104.367 71.7285 103.947 71.6008Z" fill="#DDDDDD"/>
<path d="M100.323 83.4726L74.4868 75.6158C74.0664 75.4881 73.8242 75.0409 73.9567 74.6212C74.0847 74.2014 74.5325 73.9596 74.9529 74.0919L100.789 81.9487C101.209 82.0764 101.451 82.5236 101.319 82.9433C101.195 83.3631 100.748 83.6003 100.323 83.4726Z" fill="#DDDDDD"/>
<path d="M98.833 88.3591L72.997 80.5023C72.5767 80.3746 72.3345 79.9274 72.467 79.5077C72.5949 79.0879 73.0427 78.8461 73.4631 78.9784L99.2991 86.8352C99.7195 86.9629 99.9617 87.41 99.8292 87.8298C99.7012 88.2496 99.258 88.4868 98.833 88.3591Z" fill="#DDDDDD"/>
</g>
<defs>
<clipPath id="clip0_959:1095">
<rect width="197" height="115" fill="white"/>
</clipPath>
</defs>
</svg>
