<svg width="25" height="24" viewBox="0 0 25 24" fill="none" xmlns="http://www.w3.org/2000/svg">
<path fill-rule="evenodd" clip-rule="evenodd" d="M3.00012 8C3.00012 4.68629 5.68641 2 9.00012 2H17.0001C20.3138 2 23.0001 4.68629 23.0001 8V16C23.0001 19.3137 20.3138 22 17.0001 22H9.00012C5.68641 22 3.00012 19.3137 3.00012 16V8ZM13 7C10.2388 7 8 9.23875 8 12C8 14.7613 10.2388 17 13 17C15.7613 17 18 14.7613 18 12C18 9.23875 15.7613 7 13 7ZM13 15.125C11.2775 15.125 9.875 13.7225 9.875 12C9.875 10.2762 11.2775 8.875 13 8.875C14.7225 8.875 16.125 10.2762 16.125 12C16.125 13.7225 14.7225 15.125 13 15.125ZM19.0414 6.62498C19.0414 6.99294 18.7431 7.29123 18.3752 7.29123C18.0072 7.29123 17.7089 6.99294 17.7089 6.62498C17.7089 6.25702 18.0072 5.95873 18.3752 5.95873C18.7431 5.95873 19.0414 6.25702 19.0414 6.62498Z" fill="#6A7C94"/>
</svg>
