<svg width="25" height="24" viewBox="0 0 25 24" fill="none" xmlns="http://www.w3.org/2000/svg">
<path d="M19.0351 18.339H16.3701V14.162C16.3701 13.166 16.3501 11.884 14.9801 11.884C13.5911 11.884 13.3791 12.968 13.3791 14.089V18.339H10.7131V9.75H13.2731V10.92H13.3081C13.6661 10.246 14.5361 9.533 15.8361 9.533C18.5361 9.533 19.0361 11.311 19.0361 13.624V18.339H19.0351ZM7.70307 8.575C7.49963 8.57526 7.29813 8.53537 7.11014 8.45761C6.92214 8.37984 6.75134 8.26574 6.60753 8.12184C6.46372 7.97793 6.34973 7.80706 6.27208 7.61901C6.19444 7.43097 6.15468 7.22944 6.15507 7.026C6.15527 6.71983 6.24625 6.4206 6.41651 6.16615C6.58677 5.91169 6.82867 5.71343 7.1116 5.59645C7.39454 5.47947 7.70581 5.44902 8.00605 5.50894C8.3063 5.56886 8.58203 5.71648 8.79838 5.93311C9.01473 6.14974 9.16199 6.42566 9.22152 6.72598C9.28106 7.0263 9.2502 7.33753 9.13286 7.62032C9.01551 7.9031 8.81694 8.14474 8.56226 8.31467C8.30759 8.4846 8.00824 8.5752 7.70207 8.575H7.70307ZM9.03907 18.339H6.36607V9.75H9.04007V18.339H9.03907ZM20.3701 3H5.02907C4.29307 3 3.70007 3.58 3.70007 4.297V19.703C3.70007 20.42 4.29407 21 5.02807 21H20.3661C21.1001 21 21.7001 20.42 21.7001 19.703V4.297C21.7001 3.58 21.1001 3 20.3661 3H20.3691H20.3701Z" fill="#6A7C94"/>
</svg>
