<svg width="25" height="24" viewBox="0 0 25 24" fill="none" xmlns="http://www.w3.org/2000/svg">
<path d="M22.8621 5.65593C22.0987 5.99362 21.2891 6.2154 20.4601 6.31393C21.3339 5.79136 21.9878 4.96894 22.3001 3.99993C21.4801 4.48793 20.5811 4.82993 19.6441 5.01493C19.0147 4.34151 18.1805 3.89489 17.2711 3.74451C16.3617 3.59413 15.4281 3.74842 14.6154 4.18338C13.8027 4.61834 13.1565 5.30961 12.7772 6.14972C12.398 6.98983 12.3069 7.93171 12.5181 8.82893C10.8552 8.74558 9.22846 8.31345 7.74341 7.56059C6.25837 6.80773 4.94825 5.75097 3.89813 4.45893C3.52642 5.09738 3.33108 5.82315 3.33213 6.56193C3.33213 8.01193 4.07013 9.29293 5.19213 10.0429C4.52813 10.022 3.87876 9.84271 3.29813 9.51993V9.57193C3.29833 10.5376 3.6325 11.4735 4.24397 12.221C4.85545 12.9684 5.70661 13.4814 6.65313 13.6729C6.03674 13.84 5.39043 13.8646 4.76313 13.7449C5.02999 14.5762 5.55013 15.3031 6.25072 15.824C6.9513 16.3449 7.79725 16.6337 8.67013 16.6499C7.80261 17.3313 6.8093 17.8349 5.74701 18.1321C4.68471 18.4293 3.57425 18.5142 2.47913 18.3819C4.39082 19.6114 6.61622 20.264 8.88913 20.2619C16.5821 20.2619 20.7891 13.8889 20.7891 8.36193C20.7891 8.18193 20.7841 7.99993 20.7761 7.82193C21.595 7.23009 22.3017 6.49695 22.8631 5.65693L22.8621 5.65593Z" fill="#6A7C94"/>
</svg>
